<!-- Generated by readme-aura https://github.com/collectioneur/readme-aura -->
<svg width="800" height="420" viewBox="0 0 800 420" xmlns="http://www.w3.org/2000/svg"><clipPath id="satori_cp-id"><path x="0" y="0" width="800" height="420" d="M24,0 h752 a24,24 0 0 1 24,24 v372 a24,24 0 0 1 -24,24 h-752 a24,24 0 0 1 -24,-24 v-372 a24,24 0 0 1 24,-24"/></clipPath><mask id="satori_om-id"><rect x="0" y="0" width="800" height="420" fill="#fff"/></mask><path x="0" y="0" width="800" height="420" fill="#07070c" d="M24,0 h752 a24,24 0 0 1 24,24 v372 a24,24 0 0 1 -24,24 h-752 a24,24 0 0 1 -24,-24 v-372 a24,24 0 0 1 24,-24"/><clipPath id="satori_cp-id-0" clip-path="url(#satori_cp-id)"><rect x="0" y="0" width="800" height="420"/></clipPath><mask id="satori_om-id-0"><rect x="0" y="0" width="800" height="420" fill="#fff" mask="url(#satori_om-id)"/></mask><svg x="0" y="0" width="800" height="420" preserveAspectRatio="none" clip-path="url(#satori_cp-id-0)" mask="url(#satori_om-id-0)"><defs><radialGradient id="pg1" cx="50%" cy="50%" r="50%"><stop offset="0%" stop-color="rgba(155,110,255,0.55)"></stop><stop offset="100%" stop-color="rgba(155,110,255,0)"></stop></radialGradient><radialGradient id="pg2" cx="50%" cy="50%" r="50%"><stop offset="0%" stop-color="rgba(90,200,220,0.4)"></stop><stop offset="100%" stop-color="rgba(90,200,220,0)"></stop></radialGradient></defs><ellipse id="g1" cx="140" cy="90" rx="280" ry="220" fill="url(#pg1)"></ellipse><ellipse id="g2" cx="680" cy="120" rx="260" ry="200" fill="url(#pg2)"></ellipse><circle id="r1" cx="400" cy="150" r="90" fill="none" stroke="rgba(255,255,255,0.9)" stroke-width="0.6"></circle><circle id="r2" cx="400" cy="150" r="150" fill="none" stroke="rgba(255,255,255,0.9)" stroke-width="0.6"></circle><style>

    @keyframes glow-a { 0%, 100% { transform: translate(0,0); opacity: 0.55; } 50% { transform: translate(26px,-18px); opacity: 0.85; } }
    @keyframes glow-b { 0%, 100% { transform: translate(0,0); opacity: 0.45; } 50% { transform: translate(-20px,16px); opacity: 0.7; } }
    @keyframes ring-pulse { 0%, 100% { opacity: 0.05; } 50% { opacity: 0.16; } }
    #g1 { animation: glow-a 9s ease-in-out infinite; }
    #g2 { animation: glow-b 11s ease-in-out infinite 1s; }
    #r1 { animation: ring-pulse 8s ease-in-out infinite; }
    #r2 { animation: ring-pulse 8s ease-in-out infinite 2s; }
  
</style>
</svg><mask id="satori_om-id-0-0"><rect x="0" y="0" width="0" height="420" fill="#fff" mask="url(#satori_om-id)"/></mask><mask id="satori_om-id-0-0-0"><rect x="0" y="0" width="0" height="420" fill="#fff" mask="url(#satori_om-id)"/></mask><mask id="satori_om-id-0-0-0-0"><rect x="0" y="0" width="0" height="420" fill="#fff" mask="url(#satori_om-id)"/></mask><mask id="satori_om-id-0-0-0-1"><rect x="0" y="0" width="0" height="420" fill="#fff" mask="url(#satori_om-id)"/></mask><mask id="satori_om-id-0-0-1"><rect x="0" y="0" width="0" height="420" fill="#fff" mask="url(#satori_om-id)"/></mask><mask id="satori_om-id-0-0-1-0"><rect x="0" y="0" width="0" height="420" fill="#fff" mask="url(#satori_om-id)"/></mask><mask id="satori_om-id-0-0-1-1"><rect x="0" y="0" width="0" height="420" fill="#fff" mask="url(#satori_om-id)"/></mask><mask id="satori_om-id-0-1"><rect x="0" y="0" width="0" height="420" fill="#fff" mask="url(#satori_om-id)"/></mask><mask id="satori_om-id-0-2"><rect x="0" y="0" width="0" height="420" fill="#fff" mask="url(#satori_om-id)"/></mask><mask id="satori_om-id-0-3"><rect x="0" y="0" width="0" height="420" fill="#fff" mask="url(#satori_om-id)"/></mask><mask id="satori_om-id-0-4"><rect x="0" y="0" width="0" height="420" fill="#fff" mask="url(#satori_om-id)"/></mask><mask id="satori_om-id-1"><rect x="61" y="96" width="678" height="259" fill="#fff" mask="url(#satori_om-id)"/></mask><mask id="satori_om-id-1-0"><rect x="61" y="96" width="678" height="70" fill="#fff" mask="url(#satori_om-id)"/></mask><defs><filter id="satori_s-id-1-0-0" x="-64.90%" y="-628.57%" width="239.79%" height="1367.14%"><feDropShadow dx="0" dy="0" stdDeviation="20" flood-color="rgba(155,110,255,0.6)" flood-opacity="1"/></filter></defs><g filter="url(#satori_s-id-1-0-0)"><g mask="url(#satori_om-id)" clip-path="url(#satori_cp-id)"><path fill="#ffffff" d="M76.0 117.0L63.1 117.0L63.1 109.8L97.6 109.8L97.6 117.0L84.7 117.0L84.7 152L76.0 152L76.0 117.0ZM118.2 152L109.5 152L109.5 109.8L118.2 109.8L118.2 126.9L136.6 126.9L136.6 109.8L145.2 109.8L145.2 152L136.6 152L136.6 134.0L118.2 134.0L118.2 152ZM158.9 109.8L167.5 109.8L167.5 152L158.9 152L158.9 109.8ZM188.3 152L178.7 152L193.1 109.8L204.5 109.8L219.2 152L209.6 152L206.4 142.2L191.4 142.2L188.3 152ZM193.6 135.4L204.1 135.4L202.9 131.6Q201.7 127.7 200.4 123L200.4 123Q199.6 120.0 198.7 116.6L198.7 116.6Q197.9 120.0 197.1 123.1L197.1 123.1Q195.9 127.8 194.8 131.6L194.8 131.6L193.6 135.4ZM249.1 152.6L249.1 152.6Q243.2 152.6 238.8 149.9Q234.3 147.3 231.8 142.5Q229.3 137.6 229.3 131.0L229.3 131.0Q229.3 124.1 231.9 119.2Q234.5 114.4 238.9 111.8Q243.4 109.2 248.9 109.2L248.9 109.2Q252.5 109.2 255.6 110.3Q258.7 111.3 261.1 113.2Q263.4 115.1 265.0 117.7Q266.5 120.3 266.9 123.4L266.9 123.4L258.2 123.4Q257.7 121.9 256.9 120.7Q256.1 119.5 254.9 118.6Q253.8 117.8 252.3 117.4Q250.8 116.9 249.1 116.9L249.1 116.9Q245.8 116.9 243.3 118.5Q240.8 120.2 239.5 123.3Q238.1 126.4 238.1 130.9Q238.1 135.3 239.4 138.5Q240.8 141.6 243.3 143.2Q245.8 144.9 249.2 144.9L249.2 144.9Q252.3 144.9 254.4 143.8Q256.6 142.7 257.8 140.6L257.8 140.6Q258.9 138.7 259.0 136.1L259.0 136.1L249.8 136.1L249.8 129.5L267.4 129.5L267.4 134.8Q267.4 140.3 265.0 144.3Q262.7 148.3 258.5 150.4Q254.4 152.6 249.1 152.6ZM298.5 152.6L298.5 152.6Q292.9 152.6 288.5 150.0Q284.0 147.5 281.4 142.6Q278.8 137.8 278.8 130.9L278.8 130.9Q278.8 124.0 281.4 119.2Q284.0 114.3 288.5 111.8Q292.9 109.2 298.5 109.2L298.5 109.2Q304.1 109.2 308.6 111.8Q313.0 114.3 315.6 119.2Q318.2 124.0 318.2 130.9L318.2 130.9Q318.2 137.8 315.6 142.6Q313.0 147.5 308.6 150.0Q304.1 152.6 298.5 152.6ZM298.5 144.9L298.5 144.9Q301.8 144.9 304.2 143.3Q306.7 141.7 308.0 138.6Q309.4 135.4 309.4 130.9L309.4 130.9Q309.4 126.4 308.0 123.2Q306.7 120.1 304.2 118.5Q301.8 116.9 298.5 116.9L298.5 116.9Q295.2 116.9 292.8 118.5Q290.3 120.1 289.0 123.3Q287.6 126.4 287.6 130.9L287.6 130.9Q287.6 135.4 289.0 138.5Q290.3 141.7 292.8 143.3Q295.2 144.9 298.5 144.9Z M359.0 152L350.4 152L350.4 109.8L366.9 109.8Q371.7 109.8 375.0 111.5Q378.4 113.2 380.2 116.3Q382.0 119.4 382.0 123.5Q382.0 127.7 380.2 130.7Q378.4 133.7 375.0 135.3L375.0 135.3Q374.7 135.4 374.5 135.5L374.5 135.5L383.5 152L373.9 152L365.8 136.9L359.0 136.9L359.0 152ZM359.0 116.9L359.0 129.9L365.3 129.9Q367.9 129.9 369.6 129.2Q371.3 128.5 372.2 127.1Q373.0 125.6 373.0 123.5L373.0 123.5Q373.0 121.4 372.2 119.9Q371.3 118.5 369.6 117.7Q367.9 116.9 365.2 116.9L365.2 116.9L359.0 116.9ZM413.0 152.6L413.0 152.6Q407.4 152.6 403.0 150.0Q398.5 147.5 395.9 142.6Q393.3 137.8 393.3 130.9L393.3 130.9Q393.3 124.0 395.9 119.2Q398.5 114.3 403.0 111.8Q407.4 109.2 413.0 109.2L413.0 109.2Q418.6 109.2 423.1 111.8Q427.5 114.3 430.1 119.2Q432.7 124.0 432.7 130.9L432.7 130.9Q432.7 137.8 430.1 142.6Q427.5 147.5 423.1 150.0Q418.6 152.6 413.0 152.6ZM413.0 144.9L413.0 144.9Q416.3 144.9 418.8 143.3Q421.2 141.7 422.6 138.6Q423.9 135.4 423.9 130.9L423.9 130.9Q423.9 126.4 422.6 123.2Q421.2 120.1 418.8 118.5Q416.3 116.9 413.0 116.9L413.0 116.9Q409.8 116.9 407.3 118.5Q404.8 120.1 403.5 123.3Q402.1 126.4 402.1 130.9L402.1 130.9Q402.1 135.4 403.5 138.5Q404.8 141.7 407.3 143.3Q409.8 144.9 413.0 144.9ZM460.0 152L460.0 152L445.2 152L445.2 109.8L460.2 109.8Q466.5 109.8 471.1 112.3Q475.7 114.9 478.1 119.6Q480.6 124.3 480.6 130.9L480.6 130.9Q480.6 137.5 478.1 142.2Q475.7 146.9 471.1 149.5Q466.5 152 460.0 152ZM453.8 117.3L453.8 144.6L459.6 144.6Q463.7 144.6 466.4 143.1Q469.2 141.7 470.6 138.6Q472.0 135.6 472.0 130.9L472.0 130.9Q472.0 126.2 470.6 123.2Q469.2 120.1 466.4 118.7Q463.7 117.3 459.7 117.3L459.7 117.3L453.8 117.3ZM501.7 152L493.1 152L493.1 109.8L509.5 109.8Q514.3 109.8 517.7 111.5Q521.1 113.2 522.9 116.3Q524.6 119.4 524.6 123.5Q524.6 127.7 522.8 130.7Q521.0 133.7 517.6 135.3L517.6 135.3Q517.4 135.4 517.1 135.5L517.1 135.5L526.1 152L516.5 152L508.5 136.9L501.7 136.9L501.7 152ZM501.7 116.9L501.7 129.9L507.9 129.9Q510.6 129.9 512.3 129.2Q514.0 128.5 514.9 127.1Q515.7 125.6 515.7 123.5L515.7 123.5Q515.7 121.4 514.9 119.9Q514.0 118.5 512.3 117.7Q510.6 116.9 507.9 116.9L507.9 116.9L501.7 116.9ZM537.2 109.8L545.8 109.8L545.8 152L537.2 152L537.2 109.8ZM578.1 152.6L578.1 152.6Q572.2 152.6 567.8 149.9Q563.3 147.3 560.8 142.5Q558.3 137.6 558.3 131.0L558.3 131.0Q558.3 124.1 560.9 119.2Q563.5 114.4 567.9 111.8Q572.4 109.2 577.9 109.2L577.9 109.2Q581.5 109.2 584.6 110.3Q587.7 111.3 590.0 113.2Q592.4 115.1 594.0 117.7Q595.5 120.3 595.9 123.4L595.9 123.4L587.1 123.4Q586.7 121.9 585.9 120.7Q585.1 119.5 583.9 118.6Q582.8 117.8 581.3 117.4Q579.8 116.9 578.1 116.9L578.1 116.9Q574.8 116.9 572.3 118.5Q569.8 120.2 568.5 123.3Q567.1 126.4 567.1 130.9Q567.1 135.3 568.4 138.5Q569.8 141.6 572.3 143.2Q574.8 144.9 578.2 144.9L578.2 144.9Q581.3 144.9 583.4 143.8Q585.6 142.7 586.8 140.6L586.8 140.6Q587.9 138.7 588.0 136.1L588.0 136.1L578.8 136.1L578.8 129.5L596.3 129.5L596.3 134.8Q596.3 140.3 594.0 144.3Q591.6 148.3 587.5 150.4Q583.4 152.6 578.1 152.6ZM626.4 152.6L626.4 152.6Q621.2 152.6 617.2 150.7Q613.3 148.7 611.1 145.3Q609.0 141.8 609.0 137.2L609.0 137.2L609.0 109.8L617.6 109.8L617.6 136.5Q617.6 138.9 618.7 140.9Q619.8 142.8 621.8 143.9Q623.7 144.9 626.4 144.9L626.4 144.9Q629.0 144.9 631.0 143.9Q633.0 142.8 634.1 140.9Q635.1 138.9 635.1 136.5L635.1 136.5L635.1 109.8L643.8 109.8L643.8 137.2Q643.8 141.8 641.6 145.3Q639.4 148.7 635.5 150.7Q631.6 152.6 626.4 152.6ZM685.7 152L657.4 152L657.4 109.8L685.7 109.8L685.7 117.0L666.1 117.0L666.1 127.2L684.2 127.2L684.2 134.2L666.1 134.2L666.1 144.8L685.7 144.8L685.7 152ZM714.1 152.6L714.1 152.6Q709.1 152.6 705.3 151.1Q701.5 149.5 699.5 146.4Q697.4 143.4 697.2 138.9L697.2 138.9L705.7 138.9Q705.8 141.0 706.9 142.5Q708.0 143.9 709.9 144.6Q711.7 145.3 714.0 145.3L714.0 145.3Q716.4 145.3 718.1 144.7Q719.8 144.0 720.7 142.8Q721.7 141.5 721.7 139.9L721.7 139.9Q721.7 138.5 720.8 137.5Q720.0 136.5 718.4 135.8Q716.8 135.1 714.4 134.6L714.4 134.6L709.8 133.4Q704.4 132.1 701.4 129.3Q698.4 126.5 698.4 122.0L698.4 122.0Q698.4 118.1 700.4 115.3Q702.5 112.4 706.1 110.8Q709.6 109.2 714.2 109.2L714.2 109.2Q718.9 109.2 722.4 110.8Q725.9 112.4 727.8 115.3Q729.8 118.1 729.8 121.8L729.8 121.8L721.5 121.8Q721.3 119.3 719.3 117.9Q717.4 116.5 714.1 116.5L714.1 116.5Q712.0 116.5 710.4 117.1Q708.9 117.8 708.0 118.9Q707.2 120.0 707.2 121.4L707.2 121.4Q707.2 122.9 708.2 124.0Q709.1 125.0 710.7 125.6Q712.2 126.3 714.0 126.7L714.0 126.7L717.8 127.6Q720.5 128.2 722.8 129.3Q725.1 130.3 726.8 131.8Q728.5 133.3 729.5 135.3Q730.4 137.3 730.4 140.0L730.4 140.0Q730.4 143.8 728.5 146.7Q726.6 149.5 722.9 151.1Q719.2 152.6 714.1 152.6Z "/></g></g><mask id="satori_om-id-1-1"><rect x="205" y="184" width="391" height="17" fill="#fff" mask="url(#satori_om-id)"/></mask><g mask="url(#satori_om-id)" clip-path="url(#satori_cp-id)"><path fill="rgba(220,205,255,0.85)" d="M209.5 198L209.5 198L205.9 198L205.9 187.8L209.5 187.8Q211.1 187.8 212.2 188.4Q213.3 189.0 213.9 190.2Q214.5 191.3 214.5 192.9L214.5 192.9Q214.5 194.5 213.9 195.6Q213.3 196.8 212.2 197.4Q211.1 198 209.5 198ZM208.0 189.6L208.0 196.2L209.4 196.2Q210.4 196.2 211.1 195.9Q211.7 195.5 212.1 194.8Q212.4 194.0 212.4 192.9L212.4 192.9Q212.4 191.8 212.1 191.0Q211.7 190.3 211.1 190.0Q210.4 189.6 209.4 189.6L209.4 189.6L208.0 189.6ZM223.7 198L221.4 198L224.9 187.8L227.7 187.8L231.2 198L228.9 198L228.1 195.6L224.5 195.6L223.7 198ZM225.0 194.0L227.6 194.0L227.3 193.1Q227.0 192.1 226.7 191L226.7 191Q226.5 190.3 226.3 189.5L226.3 189.5Q226.1 190.3 225.9 191.0L225.9 191.0Q225.6 192.2 225.3 193.1L225.3 193.1L225.0 194.0ZM241.2 189.5L238.1 189.5L238.1 187.8L246.4 187.8L246.4 189.5L243.3 189.5L243.3 198L241.2 198L241.2 189.5ZM255.5 198L253.2 198L256.7 187.8L259.5 187.8L263.0 198L260.7 198L259.9 195.6L256.3 195.6L255.5 198ZM256.8 194.0L259.4 194.0L259.1 193.1Q258.8 192.1 258.5 191L258.5 191Q258.3 190.3 258.1 189.5L258.1 189.5Q257.9 190.3 257.7 191.0L257.7 191.0Q257.4 192.2 257.1 193.1L257.1 193.1L256.8 194.0Z M283.3 198.2L283.3 198.2Q282.1 198.2 281.2 197.8Q280.3 197.4 279.8 196.7Q279.3 195.9 279.3 194.8L279.3 194.8L281.3 194.8Q281.3 195.4 281.6 195.7Q281.9 196.0 282.3 196.2Q282.7 196.4 283.3 196.4L283.3 196.4Q283.9 196.4 284.3 196.2Q284.7 196.1 284.9 195.8Q285.2 195.5 285.2 195.1L285.2 195.1Q285.2 194.7 285.0 194.5Q284.7 194.3 284.4 194.1Q284.0 193.9 283.4 193.8L283.4 193.8L282.3 193.5Q281.0 193.2 280.3 192.5Q279.5 191.9 279.5 190.7L279.5 190.7Q279.5 189.8 280.0 189.1Q280.5 188.4 281.4 188.1Q282.3 187.7 283.4 187.7L283.4 187.7Q284.5 187.7 285.3 188.1Q286.2 188.5 286.6 189.1Q287.1 189.8 287.1 190.7L287.1 190.7L285.1 190.7Q285.1 190.1 284.6 189.8Q284.1 189.4 283.3 189.4L283.3 189.4Q282.8 189.4 282.4 189.6Q282.1 189.7 281.9 190.0Q281.7 190.3 281.7 190.6L281.7 190.6Q281.7 191.0 281.9 191.2Q282.1 191.5 282.5 191.6Q282.9 191.8 283.3 191.9L283.3 191.9L284.2 192.1Q284.9 192.3 285.4 192.5Q286.0 192.8 286.4 193.1Q286.8 193.5 287.0 194.0Q287.3 194.5 287.3 195.1L287.3 195.1Q287.3 196.0 286.8 196.7Q286.3 197.4 285.4 197.8Q284.6 198.2 283.3 198.2ZM299.2 198.1L299.2 198.1Q297.9 198.1 296.8 197.5Q295.7 196.9 295.1 195.7Q294.5 194.6 294.5 192.9L294.5 192.9Q294.5 191.3 295.1 190.1Q295.7 188.9 296.8 188.3Q297.9 187.7 299.2 187.7L299.2 187.7Q300.1 187.7 300.8 187.9Q301.6 188.2 302.2 188.6Q302.7 189.1 303.1 189.8Q303.5 190.4 303.6 191.3L303.6 191.3L301.5 191.3Q301.4 190.9 301.2 190.6Q301.0 190.2 300.7 190.0Q300.4 189.8 300.1 189.6Q299.7 189.5 299.3 189.5L299.3 189.5Q298.5 189.5 297.9 189.9Q297.3 190.3 296.9 191.1Q296.6 191.8 296.6 192.9L296.6 192.9Q296.6 194.0 296.9 194.8Q297.3 195.5 297.9 195.9Q298.5 196.3 299.2 196.3L299.2 196.3Q299.7 196.3 300.1 196.2Q300.4 196.0 300.7 195.8Q301.0 195.6 301.2 195.3Q301.4 194.9 301.5 194.5L301.5 194.5L303.6 194.5Q303.5 195.2 303.2 195.9Q302.8 196.5 302.3 197.0Q301.7 197.5 301.0 197.8Q300.2 198.1 299.2 198.1ZM311.1 187.8L313.2 187.8L313.2 198L311.1 198L311.1 187.8ZM327.9 198L321.1 198L321.1 187.8L327.9 187.8L327.9 189.5L323.1 189.5L323.1 192.0L327.5 192.0L327.5 193.7L323.1 193.7L323.1 196.3L327.9 196.3L327.9 198ZM337.7 198L335.6 198L335.6 187.8L337.9 187.8L341.1 193.0Q341.3 193.4 341.6 193.8Q341.9 194.3 342.1 194.9L342.1 194.9Q342.2 195.1 342.4 195.5L342.4 195.5Q342.4 195.2 342.3 194.9L342.3 194.9Q342.3 194.3 342.3 193.7Q342.2 193.1 342.2 192.7L342.2 192.7L342.2 187.8L344.4 187.8L344.4 198L342.0 198L339.1 193.3Q338.8 192.8 338.5 192.3Q338.3 191.8 338.0 191.2L338.0 191.2Q337.8 190.8 337.6 190.4L337.6 190.4Q337.6 190.8 337.6 191.2L337.6 191.2Q337.6 191.9 337.7 192.4Q337.7 193.0 337.7 193.3L337.7 193.3L337.7 198ZM354.9 189.5L351.8 189.5L351.8 187.8L360.1 187.8L360.1 189.5L357.0 189.5L357.0 198L354.9 198L354.9 189.5ZM367.6 187.8L369.7 187.8L369.7 198L367.6 198L367.6 187.8ZM381.2 198.2L381.2 198.2Q380.0 198.2 379.1 197.8Q378.2 197.4 377.7 196.7Q377.2 195.9 377.2 194.8L377.2 194.8L379.2 194.8Q379.2 195.4 379.5 195.7Q379.8 196.0 380.2 196.2Q380.7 196.4 381.2 196.4L381.2 196.4Q381.8 196.4 382.2 196.2Q382.6 196.1 382.8 195.8Q383.1 195.5 383.1 195.1L383.1 195.1Q383.1 194.7 382.9 194.5Q382.6 194.3 382.3 194.1Q381.9 193.9 381.3 193.8L381.3 193.8L380.2 193.5Q378.9 193.2 378.2 192.5Q377.4 191.9 377.4 190.7L377.4 190.7Q377.4 189.8 377.9 189.1Q378.4 188.4 379.3 188.1Q380.2 187.7 381.3 187.7L381.3 187.7Q382.4 187.7 383.2 188.1Q384.1 188.5 384.5 189.1Q385.0 189.8 385.0 190.7L385.0 190.7L383.0 190.7Q383.0 190.1 382.5 189.8Q382.0 189.4 381.2 189.4L381.2 189.4Q380.7 189.4 380.3 189.6Q380.0 189.7 379.8 190.0Q379.6 190.3 379.6 190.6L379.6 190.6Q379.6 191.0 379.8 191.2Q380.0 191.5 380.4 191.6Q380.8 191.8 381.2 191.9L381.2 191.9L382.1 192.1Q382.8 192.3 383.3 192.5Q383.9 192.8 384.3 193.1Q384.7 193.5 384.9 194.0Q385.2 194.5 385.2 195.1L385.2 195.1Q385.2 196.0 384.7 196.7Q384.2 197.4 383.4 197.8Q382.5 198.2 381.2 198.2ZM395.4 189.5L392.3 189.5L392.3 187.8L400.6 187.8L400.6 189.5L397.5 189.5L397.5 198L395.4 198L395.4 189.5Z M420.4 198.2L420.4 198.2Q419.3 198.2 418.5 197.8Q417.8 197.4 417.4 196.7Q417.0 196.1 417.0 195.3L417.0 195.3Q417.0 194.7 417.2 194.2Q417.4 193.8 417.9 193.4L417.9 193.4Q418.3 193.0 418.8 192.6L418.8 192.6Q418.8 192.6 418.8 192.5L418.8 192.5Q418.4 192.0 418.1 191.5Q417.8 190.9 417.8 190.3L417.8 190.3Q417.8 189.5 418.2 189.0Q418.5 188.4 419.2 188.0Q419.8 187.7 420.6 187.7L420.6 187.7Q421.4 187.7 422.0 188.0Q422.6 188.3 422.9 188.9Q423.2 189.4 423.2 190.1L423.2 190.1Q423.2 190.6 423.1 191.0Q422.9 191.4 422.6 191.8Q422.3 192.1 421.9 192.4L421.9 192.4L421.3 192.9L423.0 194.8Q423.1 194.7 423.2 194.5L423.2 194.5Q423.4 193.8 423.4 193.1L423.4 193.1L425.1 193.1Q425.1 194.0 424.9 194.7Q424.7 195.5 424.4 196.0L424.4 196.0Q424.3 196.1 424.2 196.2L424.2 196.2L425.8 198L423.6 198L423.0 197.3Q422.4 197.7 421.8 197.9L421.8 197.9Q421.0 198.2 420.4 198.2ZM421.9 196.1L419.9 193.9L419.8 193.9Q419.4 194.2 419.2 194.5Q419.0 194.8 419.0 195.2L419.0 195.2Q419.0 195.6 419.1 195.9Q419.3 196.2 419.7 196.3Q420.0 196.5 420.4 196.5L420.4 196.5Q421.0 196.5 421.5 196.3L421.5 196.3Q421.7 196.2 421.9 196.1L421.9 196.1ZM420.3 191.7L420.3 191.7L420.8 191.3Q421.0 191.2 421.2 191.0Q421.4 190.8 421.5 190.6Q421.6 190.4 421.6 190.2L421.6 190.2Q421.6 189.8 421.3 189.6Q421.1 189.3 420.6 189.3L420.6 189.3Q420.3 189.3 420.1 189.5Q419.9 189.6 419.7 189.8Q419.6 190.0 419.6 190.3L419.6 190.3Q419.6 190.6 419.8 191.0Q420.0 191.3 420.3 191.6L420.3 191.6Q420.3 191.7 420.3 191.7Z M443.8 198L441.5 198L444.9 187.8L447.7 187.8L451.2 198L448.9 198L448.1 195.6L444.5 195.6L443.8 198ZM445.0 194.0L447.6 194.0L447.3 193.1Q447 192.1 446.7 191L446.7 191Q446.5 190.3 446.3 189.5L446.3 189.5Q446.1 190.3 445.9 191.0L445.9 191.0Q445.6 192.2 445.3 193.1L445.3 193.1L445.0 194.0ZM458.5 187.8L460.6 187.8L460.6 198L458.5 198L458.5 187.8Z M484.6 198L477.7 198L477.7 187.8L484.6 187.8L484.6 189.5L479.8 189.5L479.8 192.0L484.2 192.0L484.2 193.7L479.8 193.7L479.8 196.3L484.6 196.3L484.6 198ZM494.4 198L492.3 198L492.3 187.8L494.6 187.8L497.8 193.0Q498.0 193.4 498.3 193.8Q498.5 194.3 498.8 194.9L498.8 194.9Q498.9 195.1 499.1 195.5L499.1 195.5Q499.1 195.2 499.0 194.9L499.0 194.9Q499 194.3 499.0 193.7Q498.9 193.1 498.9 192.7L498.9 192.7L498.9 187.8L501.1 187.8L501.1 198L498.7 198L495.8 193.3Q495.5 192.8 495.2 192.3Q495.0 191.8 494.7 191.2L494.7 191.2Q494.5 190.8 494.2 190.4L494.2 190.4Q494.3 190.8 494.3 191.2L494.3 191.2Q494.3 191.9 494.4 192.4Q494.4 193.0 494.4 193.3L494.4 193.3L494.4 198ZM513.4 198.1L513.4 198.1Q512.0 198.1 510.9 197.5Q509.9 196.9 509.2 195.7Q508.6 194.5 508.6 192.9L508.6 192.9Q508.6 191.3 509.3 190.1Q509.9 188.9 511.0 188.3Q512.0 187.7 513.4 187.7L513.4 187.7Q514.2 187.7 515.0 187.9Q515.7 188.2 516.3 188.6Q516.9 189.1 517.3 189.7Q517.6 190.3 517.7 191.1L517.7 191.1L515.6 191.1Q515.5 190.7 515.3 190.4Q515.1 190.2 514.8 189.9Q514.6 189.7 514.2 189.6Q513.8 189.5 513.4 189.5L513.4 189.5Q512.6 189.5 512.0 189.9Q511.4 190.3 511.1 191.1Q510.8 191.8 510.8 192.9Q510.8 194.0 511.1 194.7Q511.4 195.5 512.0 195.9Q512.6 196.3 513.4 196.3L513.4 196.3Q514.2 196.3 514.7 196.0Q515.2 195.8 515.5 195.3L515.5 195.3Q515.8 194.8 515.8 194.2L515.8 194.2L513.6 194.2L513.6 192.6L517.8 192.6L517.8 193.8Q517.8 195.2 517.3 196.1Q516.7 197.1 515.7 197.6Q514.7 198.1 513.4 198.1ZM525.4 187.8L527.5 187.8L527.5 198L525.4 198L525.4 187.8ZM537.5 198L535.4 198L535.4 187.8L537.7 187.8L540.9 193.0Q541.2 193.4 541.4 193.8Q541.7 194.3 541.9 194.9L541.9 194.9Q542.1 195.1 542.2 195.5L542.2 195.5Q542.2 195.2 542.1 194.9L542.1 194.9Q542.1 194.3 542.1 193.7Q542.1 193.1 542.1 192.7L542.1 192.7L542.1 187.8L544.2 187.8L544.2 198L541.9 198L538.9 193.3Q538.6 192.8 538.3 192.3Q538.1 191.8 537.8 191.2L537.8 191.2Q537.6 190.8 537.4 190.4L537.4 190.4Q537.4 190.8 537.4 191.2L537.4 191.2Q537.4 191.9 537.5 192.4Q537.5 193.0 537.5 193.3L537.5 193.3L537.5 198ZM558.9 198L552.0 198L552.0 187.8L558.8 187.8L558.8 189.5L554.1 189.5L554.1 192.0L558.5 192.0L558.5 193.7L554.1 193.7L554.1 196.3L558.9 196.3L558.9 198ZM573.4 198L566.5 198L566.5 187.8L573.4 187.8L573.4 189.5L568.6 189.5L568.6 192.0L573.0 192.0L573.0 193.7L568.6 193.7L568.6 196.3L573.4 196.3L573.4 198ZM583.1 198L581.0 198L581.0 187.8L585.0 187.8Q586.2 187.8 587.0 188.2Q587.8 188.6 588.2 189.4Q588.7 190.1 588.7 191.1Q588.7 192.1 588.2 192.9Q587.8 193.6 587.0 194.0L587.0 194.0Q586.9 194.0 586.9 194.0L586.9 194.0L589.0 198L586.7 198L584.8 194.4L583.1 194.4L583.1 198ZM583.1 189.5L583.1 192.7L584.6 192.7Q585.3 192.7 585.7 192.5Q586.1 192.3 586.3 192.0Q586.5 191.6 586.5 191.1L586.5 191.1Q586.5 190.6 586.3 190.3Q586.1 189.9 585.7 189.7Q585.3 189.5 584.6 189.5L584.6 189.5L583.1 189.5Z "/></g><mask id="satori_om-id-1-2"><rect x="295" y="211" width="211" height="15" fill="#fff" mask="url(#satori_om-id)"/></mask><g mask="url(#satori_om-id)" clip-path="url(#satori_cp-id)"><path fill="rgba(255,255,255,0.4)" d="M298.8 223.2L298.8 223.2Q297.9 223.2 297.2 222.8Q296.5 222.5 296.1 222.0Q295.7 221.4 295.7 220.7L295.7 220.7L296.8 220.7Q296.9 221.2 297.2 221.5Q297.4 221.8 297.9 222.0Q298.3 222.2 298.8 222.2L298.8 222.2Q299.4 222.2 299.9 222.0Q300.4 221.8 300.7 221.4Q300.9 221.1 300.9 220.6L300.9 220.6Q300.9 220.2 300.7 219.9Q300.5 219.7 300.1 219.5Q299.7 219.3 299.2 219.2L299.2 219.2L298.2 218.9Q297.1 218.6 296.5 218.0Q295.9 217.5 295.9 216.6L295.9 216.6Q295.9 215.9 296.3 215.3Q296.7 214.8 297.4 214.5Q298.1 214.2 298.9 214.2L298.9 214.2Q299.8 214.2 300.4 214.5Q301.1 214.8 301.5 215.3Q301.9 215.8 301.9 216.5L301.9 216.5L300.8 216.5Q300.7 215.8 300.2 215.5Q299.7 215.1 298.9 215.1L298.9 215.1Q298.3 215.1 297.9 215.3Q297.5 215.5 297.2 215.8Q297.0 216.1 297.0 216.6L297.0 216.6Q297.0 217.0 297.3 217.3Q297.6 217.6 298.0 217.7Q298.4 217.9 298.7 218.0L298.7 218.0L299.5 218.2Q299.9 218.3 300.3 218.5Q300.7 218.6 301.1 218.9Q301.5 219.2 301.8 219.6Q302.0 220.0 302.0 220.6L302.0 220.6Q302.0 221.3 301.6 221.9Q301.3 222.5 300.6 222.8Q299.9 223.2 298.8 223.2ZM310.3 223.1L310.3 223.1Q309.2 223.1 308.3 222.6Q307.4 222.0 306.9 221.0Q306.4 220.0 306.4 218.6L306.4 218.6Q306.4 217.3 306.9 216.2Q307.4 215.2 308.3 214.7Q309.2 214.2 310.3 214.2L310.3 214.2Q311.4 214.2 312.3 214.7Q313.2 215.2 313.7 216.2Q314.2 217.3 314.2 218.6L314.2 218.6Q314.2 220.0 313.7 221.0Q313.2 222.0 312.3 222.6Q311.4 223.1 310.3 223.1ZM310.3 222.1L310.3 222.1Q311.1 222.1 311.7 221.7Q312.3 221.3 312.7 220.5Q313.1 219.8 313.1 218.6L313.1 218.6Q313.1 217.5 312.7 216.7Q312.3 216.0 311.7 215.6Q311.1 215.2 310.3 215.2L310.3 215.2Q309.5 215.2 308.9 215.6Q308.2 216.0 307.9 216.8Q307.5 217.5 307.5 218.6L307.5 218.6Q307.5 219.8 307.9 220.5Q308.2 221.3 308.9 221.7Q309.5 222.1 310.3 222.1ZM320.0 223L318.9 223L318.9 214.3L324.2 214.3L324.2 215.3L320.0 215.3L320.0 218.2L323.8 218.2L323.8 219.2L320.0 219.2L320.0 223ZM331.3 215.3L328.5 215.3L328.5 214.3L335.1 214.3L335.1 215.3L332.4 215.3L332.4 223L331.3 223L331.3 215.3ZM342.7 223L341.4 223L339.0 214.3L340.1 214.3L341.5 219.6Q341.6 220.1 341.7 220.5Q341.8 220.9 341.9 221.4L341.9 221.4Q342.0 221.7 342.0 222.0L342.0 222.0Q342.1 221.7 342.2 221.4L342.2 221.4Q342.3 220.9 342.4 220.5Q342.5 220.1 342.6 219.6L342.6 219.6L344.0 214.3L345.3 214.3L346.7 219.6Q346.8 220.1 346.9 220.5Q347.0 220.9 347.1 221.4L347.1 221.4Q347.1 221.7 347.2 221.9L347.2 221.9Q347.2 221.7 347.3 221.4L347.3 221.4Q347.4 220.9 347.5 220.5Q347.6 220.1 347.7 219.6L347.7 219.6L349.1 214.3L350.2 214.3L347.8 223L346.5 223L345.0 217.5Q344.9 216.9 344.8 216.3L344.8 216.3Q344.7 215.9 344.6 215.5L344.6 215.5Q344.5 215.9 344.5 216.2L344.5 216.2Q344.4 216.8 344.2 217.5L344.2 217.5L342.7 223ZM355.0 223L353.8 223L357.0 214.3L358.3 214.3L361.5 223L360.3 223L359.5 220.6L355.9 220.6L355.0 223ZM356.2 219.6L359.1 219.6L358.5 217.8Q358.3 217.3 358.1 216.6L358.1 216.6Q357.9 216.0 357.6 215.2L357.6 215.2Q357.4 216.0 357.2 216.6L357.2 216.6Q357.0 217.4 356.8 217.8L356.8 217.8L356.2 219.6ZM367.0 223L365.9 223L365.9 214.3L368.9 214.3Q369.9 214.3 370.5 214.6Q371.2 215.0 371.5 215.6Q371.8 216.2 371.8 217.0Q371.8 217.7 371.5 218.3Q371.2 218.9 370.5 219.3L370.5 219.3Q370.4 219.4 370.2 219.4L370.2 219.4L372.2 223L370.9 223L369.1 219.6Q369.0 219.6 368.9 219.6L368.9 219.6L367.0 219.6L367.0 223ZM367.0 215.2L367.0 218.6L368.8 218.6Q369.5 218.6 369.9 218.4Q370.3 218.2 370.5 217.8Q370.7 217.5 370.7 217.0L370.7 217.0Q370.7 216.4 370.5 216.1Q370.3 215.7 369.9 215.5Q369.5 215.2 368.8 215.2L368.8 215.2L367.0 215.2ZM382.0 223L376.6 223L376.6 214.3L381.9 214.3L381.9 215.3L377.7 215.3L377.7 218.1L381.6 218.1L381.6 219.1L377.7 219.1L377.7 222.0L382.0 222.0L382.0 223Z M398.5 223L393.2 223L393.2 214.3L398.5 214.3L398.5 215.3L394.3 215.3L394.3 218.1L398.2 218.1L398.2 219.1L394.3 219.1L394.3 222.0L398.5 222.0L398.5 223ZM404.5 223L403.4 223L403.4 214.3L404.7 214.3L408.3 219.9Q408.4 220.1 408.6 220.4Q408.8 220.8 409.0 221.2L409.0 221.2Q409.2 221.4 409.3 221.7L409.3 221.7Q409.3 221.4 409.2 221.1L409.2 221.1Q409.2 220.7 409.2 220.3Q409.2 219.9 409.2 219.6L409.2 219.6L409.2 214.3L410.3 214.3L410.3 223L409.0 223L405.8 218.0Q405.6 217.7 405.4 217.3Q405.2 217.0 404.9 216.4L404.9 216.4Q404.7 216.1 404.4 215.6L404.4 215.6Q404.4 216.0 404.5 216.4L404.5 216.4Q404.5 217.0 404.5 217.4Q404.5 217.8 404.5 218.0L404.5 218.0L404.5 223ZM419.0 223.1L419.0 223.1Q417.8 223.1 417.0 222.6Q416.1 222.0 415.6 221.0Q415.1 220.0 415.1 218.6L415.1 218.6Q415.1 217.3 415.6 216.2Q416.1 215.2 416.9 214.7Q417.8 214.2 418.9 214.2L418.9 214.2Q419.6 214.2 420.2 214.4Q420.8 214.6 421.3 214.9Q421.8 215.3 422.1 215.8Q422.4 216.4 422.5 217.0L422.5 217.0L421.4 217.0Q421.2 216.6 421.0 216.3Q420.8 215.9 420.5 215.7Q420.2 215.4 419.8 215.3Q419.4 215.2 418.9 215.2L418.9 215.2Q418.2 215.2 417.5 215.6Q416.9 216.0 416.5 216.7Q416.2 217.5 416.2 218.6L416.2 218.6Q416.2 219.8 416.5 220.5Q416.9 221.3 417.6 221.7Q418.2 222.1 419.0 222.1L419.0 222.1Q419.7 222.1 420.3 221.8Q420.9 221.5 421.2 220.9L421.2 220.9Q421.5 220.3 421.5 219.6L421.5 219.6L419.2 219.6L419.2 218.6L422.6 218.6L422.6 219.6Q422.6 220.7 422.1 221.4Q421.7 222.2 420.8 222.7Q420.0 223.1 419.0 223.1ZM427.4 214.3L428.5 214.3L428.5 223L427.4 223L427.4 214.3ZM434.7 223L433.6 223L433.6 214.3L434.9 214.3L438.5 219.9Q438.6 220.1 438.8 220.4Q439.0 220.8 439.2 221.2L439.2 221.2Q439.4 221.4 439.5 221.7L439.5 221.7Q439.5 221.4 439.5 221.1L439.5 221.1Q439.4 220.7 439.4 220.3Q439.4 219.9 439.4 219.6L439.4 219.6L439.4 214.3L440.5 214.3L440.5 223L439.2 223L436.0 218.0Q435.8 217.7 435.6 217.3Q435.4 217.0 435.1 216.4L435.1 216.4Q434.9 216.1 434.6 215.6L434.6 215.6Q434.7 216.0 434.7 216.4L434.7 216.4Q434.7 217.0 434.7 217.4Q434.7 217.8 434.7 218.0L434.7 218.0L434.7 223ZM451.0 223L445.6 223L445.6 214.3L451.0 214.3L451.0 215.3L446.8 215.3L446.8 218.1L450.7 218.1L450.7 219.1L446.8 219.1L446.8 222.0L451.0 222.0L451.0 223ZM461.2 223L455.9 223L455.9 214.3L461.2 214.3L461.2 215.3L457.0 215.3L457.0 218.1L460.9 218.1L460.9 219.1L457.0 219.1L457.0 222.0L461.2 222.0L461.2 223ZM467.2 223L466.1 223L466.1 214.3L469.1 214.3Q470.1 214.3 470.7 214.6Q471.4 215.0 471.7 215.6Q472.0 216.2 472.0 217.0Q472.0 217.7 471.7 218.3Q471.4 218.9 470.7 219.3L470.7 219.3Q470.6 219.4 470.4 219.4L470.4 219.4L472.4 223L471.1 223L469.3 219.6Q469.2 219.6 469.1 219.6L469.1 219.6L467.2 219.6L467.2 223ZM467.2 215.2L467.2 218.6L469.0 218.6Q469.7 218.6 470.1 218.4Q470.5 218.2 470.7 217.8Q470.9 217.5 470.9 217.0L470.9 217.0Q470.9 216.4 470.7 216.1Q470.5 215.7 470.1 215.5Q469.7 215.2 469 215.2L469 215.2L467.2 215.2ZM476.8 214.3L477.9 214.3L477.9 223L476.8 223L476.8 214.3ZM484.1 223L483.0 223L483.0 214.3L484.3 214.3L487.9 219.9Q488.0 220.1 488.2 220.4Q488.4 220.8 488.7 221.2L488.7 221.2Q488.8 221.4 488.9 221.7L488.9 221.7Q488.9 221.4 488.9 221.1L488.9 221.1Q488.8 220.7 488.8 220.3Q488.8 219.9 488.8 219.6L488.8 219.6L488.8 214.3L489.9 214.3L489.9 223L488.6 223L485.5 218.0Q485.2 217.7 485.0 217.3Q484.8 217.0 484.5 216.4L484.5 216.4Q484.3 216.1 484.0 215.6L484.0 215.6Q484.1 216.0 484.1 216.4L484.1 216.4Q484.1 217.0 484.1 217.4Q484.1 217.8 484.1 218.0L484.1 218.0L484.1 223ZM498.6 223.1L498.6 223.1Q497.5 223.1 496.6 222.6Q495.7 222.0 495.2 221.0Q494.7 220.0 494.7 218.6L494.7 218.6Q494.7 217.3 495.2 216.2Q495.7 215.2 496.6 214.7Q497.4 214.2 498.6 214.2L498.6 214.2Q499.2 214.2 499.8 214.4Q500.4 214.6 500.9 214.9Q501.4 215.3 501.7 215.8Q502.0 216.4 502.1 217.0L502.1 217.0L501.0 217.0Q500.9 216.6 500.6 216.3Q500.4 215.9 500.1 215.7Q499.8 215.4 499.4 215.3Q499.0 215.2 498.6 215.2L498.6 215.2Q497.8 215.2 497.2 215.6Q496.5 216.0 496.2 216.7Q495.8 217.5 495.8 218.6L495.8 218.6Q495.8 219.8 496.2 220.5Q496.5 221.3 497.2 221.7Q497.8 222.1 498.6 222.1L498.6 222.1Q499.4 222.1 499.9 221.8Q500.5 221.5 500.8 220.9L500.8 220.9Q501.1 220.3 501.1 219.6L501.1 219.6L498.9 219.6L498.9 218.6L502.2 218.6L502.2 219.6Q502.2 220.7 501.7 221.4Q501.3 222.2 500.5 222.7Q499.7 223.1 498.6 223.1Z "/></g><mask id="satori_om-id-1-3"><rect x="334" y="242" width="132" height="13" fill="#fff" mask="url(#satori_om-id)"/></mask><g mask="url(#satori_om-id)" clip-path="url(#satori_cp-id)"><path fill="rgba(124,92,255,0.7)" d="M337.3 255.4L337.3 255.4Q336.6 255.4 336.1 255.2Q335.6 255.0 335.3 254.8Q335.0 254.5 334.8 254.1L334.8 254.1L335.6 253.6Q335.7 253.8 335.9 254.0Q336.1 254.2 336.4 254.4Q336.8 254.5 337.3 254.5L337.3 254.5Q338.0 254.5 338.5 254.2Q338.9 253.8 338.9 253.1L338.9 253.1L338.9 251.9L338.8 251.9Q338.7 252.1 338.6 252.3Q338.4 252.5 338.0 252.7Q337.7 252.9 337.1 252.9L337.1 252.9Q336.4 252.9 335.8 252.6Q335.2 252.2 334.9 251.6Q334.6 250.9 334.6 250.0L334.6 250.0Q334.6 249.0 334.9 248.4Q335.2 247.7 335.8 247.3Q336.4 246.9 337.1 246.9L337.1 246.9Q337.7 246.9 338.0 247.1Q338.4 247.3 338.6 247.5Q338.8 247.8 338.9 248.0L338.9 248.0L339.0 248.0L339.0 247.0L339.9 247.0L339.9 253.2Q339.9 253.9 339.5 254.4Q339.2 254.9 338.6 255.1Q338.0 255.4 337.3 255.4ZM337.3 252.0L337.3 252.0Q337.8 252.0 338.2 251.8Q338.6 251.5 338.7 251.1Q338.9 250.6 338.9 249.9L338.9 249.9Q338.9 249.3 338.8 248.8Q338.6 248.3 338.2 248.1Q337.8 247.8 337.3 247.8L337.3 247.8Q336.7 247.8 336.3 248.1Q335.9 248.4 335.7 248.9Q335.5 249.3 335.5 249.9L335.5 249.9Q335.5 250.6 335.7 251.0Q335.9 251.5 336.3 251.8Q336.7 252.0 337.3 252.0ZM343.6 253L342.6 253L342.6 247.0L343.6 247.0L343.6 253ZM343.1 246.0L343.1 246.0Q342.8 246.0 342.6 245.8Q342.4 245.6 342.4 245.4L342.4 245.4Q342.4 245.1 342.6 244.9Q342.8 244.7 343.1 244.7L343.1 244.7Q343.4 244.7 343.6 244.9Q343.8 245.1 343.8 245.4L343.8 245.4Q343.8 245.6 343.6 245.8Q343.4 246.0 343.1 246.0ZM347.4 247.0L348.6 247.0L348.6 247.8L347.4 247.8L347.4 251.4Q347.4 251.8 347.6 252.0Q347.7 252.2 348.1 252.2L348.1 252.2Q348.2 252.2 348.3 252.2Q348.5 252.2 348.6 252.2L348.6 252.2L348.8 253.0Q348.6 253.0 348.4 253.0Q348.3 253.1 348.1 253.1L348.1 253.1Q347.3 253.1 346.9 252.7Q346.4 252.3 346.4 251.5L346.4 251.5L346.4 247.8L345.5 247.8L345.5 247.0L346.4 247.0L346.4 245.6L347.4 245.6L347.4 247.0ZM351.8 249.4L351.8 249.4L351.8 253L350.9 253L350.9 245.0L351.8 245.0L351.8 248.0Q352.1 247.5 352.4 247.3L352.4 247.3Q352.9 246.9 353.6 246.9L353.6 246.9Q354.2 246.9 354.7 247.2Q355.2 247.4 355.4 247.9Q355.7 248.4 355.7 249.2L355.7 249.2L355.7 253L354.7 253L354.7 249.3Q354.7 248.6 354.3 248.2Q354.0 247.8 353.3 247.8L353.3 247.8Q352.9 247.8 352.6 248.0Q352.2 248.2 352.0 248.5Q351.8 248.9 351.8 249.4ZM360.4 253.1L360.4 253.1Q359.8 253.1 359.3 252.8Q358.9 252.6 358.6 252.1Q358.4 251.6 358.4 250.8L358.4 250.8L358.4 247.0L359.3 247.0L359.3 250.7Q359.3 251.4 359.7 251.8Q360.1 252.2 360.7 252.2L360.7 252.2Q361.1 252.2 361.5 252.0Q361.8 251.8 362.0 251.5Q362.2 251.1 362.2 250.6L362.2 250.6L362.2 247.0L363.2 247.0L363.2 253L362.2 253L362.2 251.9Q362.0 252.5 361.6 252.7L361.6 252.7Q361.1 253.1 360.4 253.1ZM368.7 253.1L368.7 253.1Q368.1 253.1 367.7 252.9Q367.4 252.7 367.2 252.5Q367.0 252.2 366.9 252.1L366.9 252.1L366.8 252.1L366.8 253L365.9 253L365.9 245.0L366.8 245.0L366.8 248.0L366.9 248.0Q367.0 247.8 367.2 247.6Q367.4 247.3 367.7 247.1Q368.1 246.9 368.6 246.9L368.6 246.9Q369.4 246.9 370.0 247.3Q370.5 247.7 370.9 248.4Q371.2 249.1 371.2 250.0L371.2 250.0Q371.2 251.0 370.9 251.7Q370.5 252.4 370.0 252.7Q369.4 253.1 368.7 253.1ZM368.5 252.3L368.5 252.3Q369.1 252.3 369.5 252.0Q369.8 251.7 370.0 251.1Q370.2 250.6 370.2 250.0L370.2 250.0Q370.2 249.4 370.0 248.9Q369.8 248.4 369.5 248.1Q369.1 247.8 368.5 247.8L368.5 247.8Q368.0 247.8 367.6 248.1Q367.2 248.3 367.0 248.8Q366.8 249.3 366.8 250.0L366.8 250.0Q366.8 250.7 367.0 251.2Q367.2 251.7 367.6 252.0Q368.0 252.3 368.5 252.3ZM374.3 253.1L374.3 253.1Q374.0 253.1 373.8 252.9Q373.6 252.6 373.6 252.3L373.6 252.3Q373.6 252.0 373.8 251.8Q374.0 251.6 374.3 251.6L374.3 251.6Q374.6 251.6 374.9 251.8Q375.1 252.0 375.1 252.3L375.1 252.3Q375.1 252.6 374.9 252.9Q374.6 253.1 374.3 253.1ZM380.2 253.1L380.2 253.1Q379.4 253.1 378.8 252.7Q378.2 252.4 377.8 251.7Q377.5 251.0 377.5 250.0L377.5 250.0Q377.5 249.1 377.8 248.4Q378.2 247.7 378.8 247.3Q379.4 246.9 380.2 246.9L380.2 246.9Q380.6 246.9 381.0 247.0Q381.4 247.1 381.7 247.4Q382.1 247.6 382.3 247.9Q382.5 248.2 382.6 248.6L382.6 248.6L381.7 248.8Q381.7 248.6 381.5 248.4Q381.4 248.2 381.2 248.1Q381.0 247.9 380.8 247.9Q380.5 247.8 380.2 247.8L380.2 247.8Q379.6 247.8 379.2 248.1Q378.8 248.4 378.7 248.9Q378.5 249.4 378.5 250.0L378.5 250.0Q378.5 250.6 378.7 251.1Q378.8 251.6 379.2 252.0Q379.6 252.3 380.2 252.3L380.2 252.3Q380.5 252.3 380.8 252.2Q381.0 252.1 381.2 252.0Q381.4 251.8 381.5 251.6Q381.7 251.4 381.7 251.2L381.7 251.2L382.7 251.4Q382.6 251.8 382.3 252.1Q382.1 252.5 381.8 252.7Q381.4 252.9 381.0 253.0Q380.7 253.1 380.2 253.1ZM387.5 253.1L387.5 253.1Q386.7 253.1 386.1 252.7Q385.5 252.4 385.1 251.7Q384.8 251.0 384.8 250.0L384.8 250.0Q384.8 249.1 385.1 248.4Q385.5 247.7 386.1 247.3Q386.7 246.9 387.5 246.9L387.5 246.9Q388.3 246.9 388.9 247.3Q389.6 247.7 389.9 248.4Q390.2 249.1 390.2 250.0L390.2 250.0Q390.2 251.0 389.9 251.7Q389.6 252.4 388.9 252.7Q388.3 253.1 387.5 253.1ZM387.5 252.3L387.5 252.3Q388.1 252.3 388.5 252.0Q388.9 251.6 389.1 251.1Q389.3 250.6 389.3 250.0L389.3 250.0Q389.3 249.4 389.1 248.9Q388.9 248.4 388.5 248.1Q388.1 247.8 387.5 247.8L387.5 247.8Q386.9 247.8 386.5 248.1Q386.1 248.4 385.9 248.9Q385.7 249.4 385.7 250.0L385.7 250.0Q385.7 250.6 385.9 251.1Q386.1 251.6 386.5 252.0Q386.9 252.3 387.5 252.3ZM393.6 253L392.7 253L392.7 247.0L393.6 247.0L393.6 248.1Q393.7 247.8 393.9 247.5L393.9 247.5Q394.2 247.2 394.5 247.0Q394.9 246.9 395.3 246.9L395.3 246.9Q395.9 246.9 396.3 247.3L396.3 247.3Q396.7 247.6 396.8 248.1L396.8 248.1Q396.9 247.8 397.1 247.6L397.1 247.6Q397.4 247.2 397.8 247.1Q398.2 246.9 398.7 246.9L398.7 246.9Q399.2 246.9 399.6 247.1Q400.1 247.3 400.3 247.8Q400.6 248.3 400.6 249.0L400.6 249.0L400.6 253L399.6 253L399.6 249.0Q399.6 248.3 399.3 248.0Q398.9 247.8 398.4 247.8L398.4 247.8Q398.0 247.8 397.7 247.9Q397.4 248.1 397.3 248.4Q397.1 248.7 397.1 249.1L397.1 249.1L397.1 253L396.1 253L396.1 248.9Q396.1 248.4 395.8 248.1Q395.5 247.8 395.0 247.8L395.0 247.8Q394.6 247.8 394.3 247.9Q394.0 248.1 393.8 248.4Q393.6 248.7 393.6 249.2L393.6 249.2L393.6 253ZM405.3 244.6L406.2 244.6L403.6 254.2L402.7 254.2L405.3 244.6ZM410.4 245.9L407.9 245.9L407.9 245.0L414.0 245.0L414.0 245.9L411.5 245.9L411.5 253L410.4 253L410.4 245.9ZM417.3 249.4L417.3 249.4L417.3 253L416.4 253L416.4 245.0L417.3 245.0L417.3 248.0Q417.6 247.5 417.9 247.3L417.9 247.3Q418.4 246.9 419.1 246.9L419.1 246.9Q419.7 246.9 420.2 247.2Q420.6 247.4 420.9 247.9Q421.2 248.4 421.2 249.2L421.2 249.2L421.2 253L420.2 253L420.2 249.3Q420.2 248.6 419.8 248.2Q419.5 247.8 418.8 247.8L418.8 247.8Q418.4 247.8 418.1 248.0Q417.7 248.2 417.5 248.5Q417.3 248.9 417.3 249.4ZM424.8 253L423.9 253L423.9 247.0L424.8 247.0L424.8 253ZM424.3 246.0L424.3 246.0Q424.1 246.0 423.9 245.8Q423.7 245.6 423.7 245.4L423.7 245.4Q423.7 245.1 423.9 244.9Q424.1 244.7 424.3 244.7L424.3 244.7Q424.6 244.7 424.8 244.9Q425.0 245.1 425.0 245.4L425.0 245.4Q425.0 245.6 424.8 245.8Q424.6 246.0 424.3 246.0ZM429.2 253.1L429.2 253.1Q428.6 253.1 428.2 252.9Q427.7 252.7 427.4 252.3Q427.2 251.9 427.2 251.3L427.2 251.3Q427.2 250.8 427.4 250.5Q427.6 250.1 427.9 249.9Q428.2 249.8 428.7 249.7Q429.1 249.6 429.5 249.5L429.5 249.5Q430.0 249.5 430.4 249.4Q430.7 249.4 430.9 249.3Q431.0 249.2 431.0 249.0L431.0 249.0L431.0 248.9Q431.0 248.6 430.9 248.3Q430.8 248.0 430.5 247.9Q430.2 247.8 429.8 247.8L429.8 247.8Q429.3 247.8 429.0 247.9Q428.7 248.0 428.5 248.2Q428.4 248.4 428.3 248.6L428.3 248.6L427.3 248.3Q427.6 247.8 427.9 247.5Q428.3 247.2 428.8 247.0Q429.3 246.9 429.7 246.9L429.7 246.9Q430.0 246.9 430.4 247.0Q430.8 247.1 431.2 247.3Q431.5 247.5 431.8 247.9Q432.0 248.3 432.0 249.0L432.0 249.0L432.0 253L431.0 253L431.0 252.2L431.0 252.2Q430.9 252.4 430.7 252.6Q430.4 252.8 430.1 253.0Q429.7 253.1 429.2 253.1ZM429.4 252.3L429.4 252.3Q429.9 252.3 430.3 252.1Q430.6 251.9 430.8 251.5Q431.0 251.2 431.0 250.8L431.0 250.8L431.0 250.0Q431.0 250.1 430.8 250.1Q430.6 250.2 430.3 250.2Q430.1 250.3 429.8 250.3Q429.6 250.3 429.4 250.3L429.4 250.3Q429.1 250.4 428.8 250.5Q428.5 250.6 428.3 250.8Q428.1 251.0 428.1 251.3L428.1 251.3Q428.1 251.7 428.3 251.9Q428.4 252.1 428.7 252.2Q429.0 252.3 429.4 252.3ZM437.1 255.4L437.1 255.4Q436.5 255.4 436.0 255.2Q435.5 255.0 435.2 254.8Q434.8 254.5 434.7 254.1L434.7 254.1L435.4 253.6Q435.6 253.8 435.8 254.0Q436.0 254.2 436.3 254.4Q436.6 254.5 437.1 254.5L437.1 254.5Q437.8 254.5 438.3 254.2Q438.8 253.8 438.8 253.1L438.8 253.1L438.8 251.9L438.7 251.9Q438.6 252.1 438.4 252.3Q438.2 252.5 437.9 252.7Q437.5 252.9 436.9 252.9L436.9 252.9Q436.2 252.9 435.6 252.6Q435.1 252.2 434.7 251.6Q434.4 250.9 434.4 250.0L434.4 250.0Q434.4 249.0 434.7 248.4Q435.1 247.7 435.6 247.3Q436.2 246.9 437.0 246.9L437.0 246.9Q437.5 246.9 437.9 247.1Q438.2 247.3 438.4 247.5Q438.6 247.8 438.7 248.0L438.7 248.0L438.8 248.0L438.8 247.0L439.7 247.0L439.7 253.2Q439.7 253.9 439.4 254.4Q439.0 254.9 438.5 255.1Q437.9 255.4 437.1 255.4ZM437.1 252.0L437.1 252.0Q437.6 252.0 438.0 251.8Q438.4 251.5 438.6 251.1Q438.8 250.6 438.8 249.9L438.8 249.9Q438.8 249.3 438.6 248.8Q438.4 248.3 438.0 248.1Q437.7 247.8 437.1 247.8L437.1 247.8Q436.5 247.8 436.2 248.1Q435.8 248.4 435.6 248.9Q435.4 249.3 435.4 249.9L435.4 249.9Q435.4 250.6 435.6 251.0Q435.8 251.5 436.2 251.8Q436.5 252.0 437.1 252.0ZM444.9 253.1L444.9 253.1Q444.1 253.1 443.5 252.7Q442.8 252.4 442.5 251.7Q442.2 251.0 442.2 250.0L442.2 250.0Q442.2 249.1 442.5 248.4Q442.8 247.7 443.5 247.3Q444.1 246.9 444.9 246.9L444.9 246.9Q445.7 246.9 446.3 247.3Q446.9 247.7 447.3 248.4Q447.6 249.1 447.6 250.0L447.6 250.0Q447.6 251.0 447.3 251.7Q446.9 252.4 446.3 252.7Q445.7 253.1 444.9 253.1ZM444.9 252.3L444.9 252.3Q445.5 252.3 445.9 252.0Q446.3 251.6 446.5 251.1Q446.7 250.6 446.7 250.0L446.7 250.0Q446.7 249.4 446.5 248.9Q446.3 248.4 445.9 248.1Q445.5 247.8 444.9 247.8L444.9 247.8Q444.3 247.8 443.9 248.1Q443.5 248.4 443.3 248.9Q443.1 249.4 443.1 250.0L443.1 250.0Q443.1 250.6 443.3 251.1Q443.5 251.6 443.9 252.0Q444.3 252.3 444.9 252.3ZM451.0 253L450.0 253L450.0 247.0L451.0 247.0L451.0 247.9L451.0 247.9Q451.2 247.5 451.6 247.2Q452.1 246.9 452.6 246.9L452.6 246.9Q452.7 246.9 452.8 246.9Q453.0 246.9 453.1 246.9L453.1 246.9L453.1 247.9Q453.0 247.9 452.9 247.9Q452.7 247.8 452.5 247.8L452.5 247.8Q452.1 247.8 451.7 248.0Q451.4 248.2 451.2 248.5Q451.0 248.8 451.0 249.2L451.0 249.2L451.0 253ZM457.6 253.1L457.6 253.1Q456.8 253.1 456.2 252.7Q455.6 252.4 455.2 251.7Q454.9 251.0 454.9 250.0L454.9 250.0Q454.9 249.1 455.2 248.4Q455.6 247.7 456.2 247.3Q456.8 246.9 457.6 246.9L457.6 246.9Q458.1 246.9 458.4 247.0Q458.8 247.1 459.2 247.4Q459.5 247.6 459.7 247.9Q459.9 248.2 460.1 248.6L460.1 248.6L459.1 248.8Q459.1 248.6 458.9 248.4Q458.8 248.2 458.6 248.1Q458.4 247.9 458.2 247.9Q457.9 247.8 457.6 247.8L457.6 247.8Q457.0 247.8 456.6 248.1Q456.2 248.4 456.1 248.9Q455.9 249.4 455.9 250.0L455.9 250.0Q455.9 250.6 456.1 251.1Q456.2 251.6 456.6 252.0Q457.0 252.3 457.6 252.3L457.6 252.3Q457.9 252.3 458.2 252.2Q458.4 252.1 458.6 252.0Q458.8 251.8 459.0 251.6Q459.1 251.4 459.2 251.2L459.2 251.2L460.1 251.4Q460.0 251.8 459.7 252.1Q459.5 252.5 459.2 252.7Q458.8 252.9 458.5 253.0Q458.1 253.1 457.6 253.1ZM462.5 253.4L462.5 247.0L463.4 247.0L463.4 253.4Q463.4 254.0 463.2 254.4Q463.0 254.8 462.6 255.0Q462.3 255.2 461.7 255.2L461.7 255.2L461.5 255.2L461.5 254.4L461.7 254.4Q462.1 254.4 462.3 254.1Q462.5 253.9 462.5 253.4L462.5 253.4ZM462.9 246.0L462.9 246.0Q462.7 246.0 462.5 245.8Q462.3 245.6 462.3 245.4L462.3 245.4Q462.3 245.1 462.5 244.9Q462.7 244.7 462.9 244.7L462.9 244.7Q463.2 244.7 463.4 244.9Q463.6 245.1 463.6 245.4L463.6 245.4Q463.6 245.6 463.4 245.8Q463.2 246.0 462.9 246.0Z "/></g><mask id="satori_om-id-1-4"><rect x="90" y="285" width="620" height="70" fill="#fff" mask="url(#satori_om-id)"/></mask><defs><clipPath id="satori_bc-id-1-4-0" clip-path="url(#satori_cp-id)"><path x="94" y="285" width="74" height="31" d="M109.5,285 h43 a15.5,15.5 0 0 1 15.5,15.5 v0 a15.5,15.5 0 0 1 -15.5,15.5 h-43 a15.5,15.5 0 0 1 -15.5,-15.5 v0 a15.5,15.5 0 0 1 15.5,-15.5"/></clipPath></defs><mask id="satori_om-id-1-4-0"><rect x="95" y="286" width="72" height="29" fill="#fff" mask="url(#satori_om-id)"/><path width="74" height="31" fill="none" stroke="#000" stroke-width="2" d="M98.53999999999999,289.54 A15.5,15.5 0 0 1 109.5,285 h43 a15.5,15.5 0 0 1 15.5,15.5 v0 a15.5,15.5 0 0 1 -15.5,15.5 h-43 a15.5,15.5 0 0 1 -15.5,-15.5 v0 A15.5,15.5 0 0 1 98.53999999999999,289.54"/></mask><path x="94" y="285" width="74" height="31" fill="rgba(255,255,255,0.045)" d="M109.5,285 h43 a15.5,15.5 0 0 1 15.5,15.5 v0 a15.5,15.5 0 0 1 -15.5,15.5 h-43 a15.5,15.5 0 0 1 -15.5,-15.5 v0 a15.5,15.5 0 0 1 15.5,-15.5" clip-path="url(#satori_cp-id)" mask="url(#satori_om-id)"/><path width="74" height="31" clip-path="url(#satori_bc-id-1-4-0)" fill="none" stroke="rgba(255,255,255,0.1)" stroke-width="2" d="M98.53999999999999,289.54 A15.5,15.5 0 0 1 109.5,285 h43 a15.5,15.5 0 0 1 15.5,15.5 v0 a15.5,15.5 0 0 1 -15.5,15.5 h-43 a15.5,15.5 0 0 1 -15.5,-15.5 v0 A15.5,15.5 0 0 1 98.53999999999999,289.54"/><g mask="url(#satori_om-id)" clip-path="url(#satori_cp-id)"><path fill="rgba(255,255,255,0.75)" d="M113.2 305L112.1 305L112.1 296.3L115.0 296.3Q116.1 296.3 116.7 296.6Q117.4 297.0 117.7 297.6Q118.0 298.3 118.0 299.0Q118.0 299.8 117.7 300.5Q117.4 301.1 116.7 301.5Q116.1 301.8 115.0 301.8L115.0 301.8L113.2 301.8L113.2 305ZM113.2 297.2L113.2 300.9L115.0 300.9Q115.7 300.9 116.1 300.6Q116.5 300.4 116.7 300.0Q116.9 299.6 116.9 299.0Q116.9 298.5 116.7 298.1Q116.5 297.7 116.1 297.5Q115.7 297.2 115.0 297.2L115.0 297.2L113.2 297.2ZM119.5 307.4L119.5 307.4L119.8 306.5L119.9 306.5Q120.2 306.6 120.5 306.5Q120.7 306.5 120.9 306.3Q121.1 306.0 121.3 305.6L121.3 305.6L121.5 305.0L119.0 298.4L120.1 298.4L121.5 302.3Q121.8 302.9 121.9 303.5L121.9 303.5Q122.0 303.8 122.0 304.0L122.0 304.0Q122.1 303.8 122.2 303.5L122.2 303.5Q122.3 302.9 122.5 302.3L122.5 302.3L123.9 298.4L125.1 298.4L122.2 306.0Q122.0 306.5 121.7 306.8Q121.5 307.2 121.1 307.3Q120.7 307.5 120.3 307.5L120.3 307.5Q120.0 307.5 119.8 307.5Q119.6 307.4 119.5 307.4ZM127.6 298.4L128.9 298.4L128.9 299.4L127.6 299.4L127.6 303.3Q127.6 303.7 127.7 303.9Q127.9 304.1 128.3 304.1L128.3 304.1Q128.4 304.1 128.6 304.1Q128.7 304.1 128.9 304.1L128.9 304.1L129.1 305.0Q128.9 305.0 128.7 305.1Q128.5 305.1 128.3 305.1L128.3 305.1Q127.5 305.1 127.0 304.6Q126.5 304.2 126.5 303.4L126.5 303.4L126.5 299.4L125.5 299.4L125.5 298.4L126.5 298.4L126.5 296.9L127.6 296.9L127.6 298.4ZM131.3 301.1L131.3 301.1L131.3 305L130.3 305L130.3 296.3L131.3 296.3L131.3 299.6Q131.6 299.0 132.0 298.7L132.0 298.7Q132.5 298.4 133.3 298.4L133.3 298.4Q133.9 298.4 134.4 298.6Q134.9 298.9 135.2 299.5Q135.5 300.0 135.5 300.8L135.5 300.8L135.5 305L134.4 305L134.4 300.9Q134.4 300.2 134.0 299.7Q133.7 299.3 133.0 299.3L133.0 299.3Q132.5 299.3 132.1 299.5Q131.7 299.7 131.5 300.1Q131.3 300.5 131.3 301.1ZM140.0 305.1L140.0 305.1Q139.1 305.1 138.5 304.7Q137.8 304.3 137.4 303.5Q137.0 302.8 137.0 301.8L137.0 301.8Q137.0 300.7 137.4 300.0Q137.8 299.2 138.5 298.8Q139.1 298.4 140.0 298.4L140.0 298.4Q140.9 298.4 141.6 298.8Q142.3 299.2 142.6 300.0Q143.0 300.7 143.0 301.8L143.0 301.8Q143.0 302.8 142.6 303.5Q142.3 304.3 141.6 304.7Q140.9 305.1 140.0 305.1ZM140.0 304.2L140.0 304.2Q140.7 304.2 141.1 303.9Q141.5 303.5 141.7 303.0Q141.9 302.4 141.9 301.8L141.9 301.8Q141.9 301.1 141.7 300.6Q141.5 300.0 141.1 299.7Q140.7 299.3 140.0 299.3L140.0 299.3Q139.4 299.3 138.9 299.7Q138.5 300.0 138.3 300.6Q138.1 301.1 138.1 301.8L138.1 301.8Q138.1 302.4 138.3 303.0Q138.5 303.5 138.9 303.9Q139.4 304.2 140.0 304.2ZM145.6 301.1L145.6 301.1L145.6 305L144.6 305L144.6 298.4L145.6 298.4L145.6 299.7Q145.8 299.0 146.3 298.7L146.3 298.7Q146.8 298.4 147.6 298.4L147.6 298.4Q148.2 298.4 148.7 298.6Q149.2 298.9 149.5 299.5Q149.8 300.0 149.8 300.8L149.8 300.8L149.8 305L148.7 305L148.7 300.9Q148.7 300.2 148.3 299.7Q147.9 299.3 147.3 299.3L147.3 299.3Q146.8 299.3 146.4 299.5Q146.0 299.7 145.8 300.1Q145.6 300.5 145.6 301.1Z "/></g><defs><clipPath id="satori_bc-id-1-4-1" clip-path="url(#satori_cp-id)"><path x="176" y="285" width="101" height="31" d="M191.5,285 h70 a15.5,15.5 0 0 1 15.5,15.5 v0 a15.5,15.5 0 0 1 -15.5,15.5 h-70 a15.5,15.5 0 0 1 -15.5,-15.5 v0 a15.5,15.5 0 0 1 15.5,-15.5"/></clipPath></defs><mask id="satori_om-id-1-4-1"><rect x="177" y="286" width="99" height="29" fill="#fff" mask="url(#satori_om-id)"/><path width="101" height="31" fill="none" stroke="#000" stroke-width="2" d="M180.54,289.54 A15.5,15.5 0 0 1 191.5,285 h70 a15.5,15.5 0 0 1 15.5,15.5 v0 a15.5,15.5 0 0 1 -15.5,15.5 h-70 a15.5,15.5 0 0 1 -15.5,-15.5 v0 A15.5,15.5 0 0 1 180.54,289.54"/></mask><path x="176" y="285" width="101" height="31" fill="rgba(255,255,255,0.045)" d="M191.5,285 h70 a15.5,15.5 0 0 1 15.5,15.5 v0 a15.5,15.5 0 0 1 -15.5,15.5 h-70 a15.5,15.5 0 0 1 -15.5,-15.5 v0 a15.5,15.5 0 0 1 15.5,-15.5" clip-path="url(#satori_cp-id)" mask="url(#satori_om-id)"/><path width="101" height="31" clip-path="url(#satori_bc-id-1-4-1)" fill="none" stroke="rgba(255,255,255,0.1)" stroke-width="2" d="M180.54,289.54 A15.5,15.5 0 0 1 191.5,285 h70 a15.5,15.5 0 0 1 15.5,15.5 v0 a15.5,15.5 0 0 1 -15.5,15.5 h-70 a15.5,15.5 0 0 1 -15.5,-15.5 v0 A15.5,15.5 0 0 1 180.54,289.54"/><g mask="url(#satori_om-id)" clip-path="url(#satori_cp-id)"><path fill="rgba(255,255,255,0.75)" d="M196.3 297.3L193.6 297.3L193.6 296.3L200.2 296.3L200.2 297.3L197.4 297.3L197.4 305L196.3 305L196.3 297.3ZM204.4 305.1L204.4 305.1Q203.5 305.1 202.8 304.7Q202.1 304.3 201.7 303.5Q201.4 302.8 201.4 301.8Q201.4 300.8 201.7 300.0Q202.1 299.2 202.7 298.8Q203.4 298.4 204.3 298.4L204.3 298.4Q204.8 298.4 205.3 298.5Q205.8 298.7 206.3 299.1Q206.7 299.5 206.9 300.1Q207.2 300.7 207.2 301.6L207.2 301.6L207.2 302.1L202.4 302.1Q202.4 302.7 202.7 303.2L202.7 303.2Q202.9 303.7 203.4 303.9Q203.8 304.2 204.4 304.2L204.4 304.2Q204.8 304.2 205.1 304.1Q205.5 304.0 205.7 303.8Q205.9 303.5 206.0 303.2L206.0 303.2L207.1 303.5Q206.9 304.0 206.5 304.3Q206.2 304.7 205.6 304.9Q205.1 305.1 204.4 305.1ZM202.4 301.2L202.4 301.2L206.1 301.2Q206.0 300.7 205.9 300.4L205.9 300.4Q205.7 299.9 205.3 299.6Q204.9 299.3 204.3 299.3Q203.7 299.3 203.3 299.6Q202.9 299.9 202.6 300.3L202.6 300.3Q202.5 300.7 202.4 301.2ZM209.7 301.1L209.7 301.1L209.7 305L208.7 305L208.7 298.4L209.7 298.4L209.7 299.7Q210.0 299.0 210.4 298.7L210.4 298.7Q210.9 298.4 211.7 298.4L211.7 298.4Q212.4 298.4 212.9 298.6Q213.3 298.9 213.6 299.5Q213.9 300.0 213.9 300.8L213.9 300.8L213.9 305L212.9 305L212.9 300.9Q212.9 300.2 212.5 299.7Q212.1 299.3 211.4 299.3L211.4 299.3Q210.9 299.3 210.5 299.5Q210.2 299.7 209.9 300.1Q209.7 300.5 209.7 301.1ZM218.0 305.1L218.0 305.1Q217.3 305.1 216.8 304.9Q216.3 304.7 215.9 304.4Q215.6 304.0 215.5 303.4L215.5 303.4L216.5 303.2Q216.6 303.7 217.0 304.0Q217.4 304.2 218.0 304.2L218.0 304.2Q218.7 304.2 219.1 303.9Q219.5 303.6 219.5 303.2L219.5 303.2Q219.5 302.9 219.2 302.7Q219.0 302.4 218.5 302.3L218.5 302.3L217.4 302.1Q216.5 301.9 216.1 301.4Q215.7 301.0 215.7 300.3L215.7 300.3Q215.7 299.7 216.0 299.3Q216.3 298.9 216.8 298.6Q217.4 298.4 218.1 298.4L218.1 298.4Q218.8 298.4 219.2 298.6Q219.7 298.8 220.0 299.1Q220.3 299.5 220.4 299.9L220.4 299.9L219.5 300.2Q219.4 299.8 219.0 299.6Q218.7 299.3 218.1 299.3L218.1 299.3Q217.5 299.3 217.1 299.5Q216.7 299.8 216.7 300.2L216.7 300.2Q216.7 300.6 217.0 300.8Q217.3 301.0 217.8 301.2L217.8 301.2L218.8 301.4Q219.7 301.6 220.1 302.0Q220.6 302.5 220.6 303.2L220.6 303.2Q220.6 303.7 220.2 304.2Q219.9 304.6 219.3 304.9Q218.8 305.1 218.0 305.1ZM224.8 305.1L224.8 305.1Q223.9 305.1 223.2 304.7Q222.5 304.3 222.2 303.5Q221.8 302.8 221.8 301.8L221.8 301.8Q221.8 300.7 222.2 300.0Q222.5 299.2 223.2 298.8Q223.9 298.4 224.8 298.4L224.8 298.4Q225.7 298.4 226.3 298.8Q227.0 299.2 227.4 300.0Q227.8 300.7 227.8 301.8L227.8 301.8Q227.8 302.8 227.4 303.5Q227.0 304.3 226.3 304.7Q225.7 305.1 224.8 305.1ZM224.8 304.2L224.8 304.2Q225.4 304.2 225.8 303.9Q226.3 303.5 226.5 303.0Q226.7 302.4 226.7 301.8L226.7 301.8Q226.7 301.1 226.5 300.6Q226.3 300.0 225.8 299.7Q225.4 299.3 224.8 299.3L224.8 299.3Q224.1 299.3 223.7 299.7Q223.3 300.0 223.1 300.6Q222.8 301.1 222.8 301.8L222.8 301.8Q222.8 302.4 223.1 303.0Q223.3 303.5 223.7 303.9Q224.1 304.2 224.8 304.2ZM230.3 305L229.3 305L229.3 298.4L230.3 298.4L230.3 299.5L230.4 299.5Q230.6 299.0 231.0 298.7Q231.5 298.4 232.1 298.4L232.1 298.4Q232.2 298.4 232.4 298.4Q232.5 298.4 232.6 298.4L232.6 298.4L232.6 299.4Q232.6 299.4 232.4 299.4Q232.2 299.4 232.0 299.4L232.0 299.4Q231.5 299.4 231.1 299.6Q230.8 299.8 230.6 300.1Q230.3 300.5 230.3 300.9L230.3 300.9L230.3 305ZM235.0 305L233.9 305L233.9 296.3L239.2 296.3L239.2 297.3L235.0 297.3L235.0 300.2L238.8 300.2L238.8 301.2L235.0 301.2L235.0 305ZM240.9 296.3L241.9 296.3L241.9 305L240.9 305L240.9 296.3ZM246.5 305.1L246.5 305.1Q245.6 305.1 244.9 304.7Q244.2 304.3 243.9 303.5Q243.5 302.8 243.5 301.8L243.5 301.8Q243.5 300.7 243.9 300.0Q244.2 299.2 244.9 298.8Q245.6 298.4 246.5 298.4L246.5 298.4Q247.4 298.4 248.0 298.8Q248.7 299.2 249.1 300.0Q249.5 300.7 249.5 301.8L249.5 301.8Q249.5 302.8 249.1 303.5Q248.7 304.3 248.0 304.7Q247.4 305.1 246.5 305.1ZM246.5 304.2L246.5 304.2Q247.1 304.2 247.6 303.9Q248.0 303.5 248.2 303.0Q248.4 302.4 248.4 301.8L248.4 301.8Q248.4 301.1 248.2 300.6Q248.0 300.0 247.6 299.7Q247.1 299.3 246.5 299.3L246.5 299.3Q245.8 299.3 245.4 299.7Q245.0 300.0 244.8 300.6Q244.6 301.1 244.6 301.8L244.6 301.8Q244.6 302.4 244.8 303.0Q245.0 303.5 245.4 303.9Q245.8 304.2 246.5 304.2ZM253.5 305L252.5 305L250.5 298.4L251.6 298.4L252.4 301.3Q252.6 301.9 252.7 302.6L252.7 302.6Q252.9 303.2 253.0 303.9L253.0 303.9Q253.2 303.2 253.3 302.7L253.3 302.7Q253.5 301.9 253.6 301.3L253.6 301.3L254.4 298.4L255.5 298.4L256.3 301.3Q256.5 301.9 256.7 302.7L256.7 302.7Q256.8 303.2 256.9 303.9L256.9 303.9Q257.1 303.2 257.2 302.7L257.2 302.7Q257.4 301.9 257.6 301.3L257.6 301.3L258.4 298.4L259.5 298.4L257.5 305L256.4 305L255.6 302.0Q255.5 301.6 255.3 301.1Q255.2 300.6 255.1 300.2L255.1 300.2Q255.0 299.9 255.0 299.6L255.0 299.6Q254.9 299.9 254.9 300.1L254.9 300.1Q254.7 300.6 254.6 301.1Q254.5 301.6 254.4 302.0L254.4 302.0L253.5 305Z "/></g><defs><clipPath id="satori_bc-id-1-4-2" clip-path="url(#satori_cp-id)"><path x="285" y="285" width="82" height="31" d="M300.5,285 h51 a15.5,15.5 0 0 1 15.5,15.5 v0 a15.5,15.5 0 0 1 -15.5,15.5 h-51 a15.5,15.5 0 0 1 -15.5,-15.5 v0 a15.5,15.5 0 0 1 15.5,-15.5"/></clipPath></defs><mask id="satori_om-id-1-4-2"><rect x="286" y="286" width="80" height="29" fill="#fff" mask="url(#satori_om-id)"/><path width="82" height="31" fill="none" stroke="#000" stroke-width="2" d="M289.54,289.54 A15.5,15.5 0 0 1 300.5,285 h51 a15.5,15.5 0 0 1 15.5,15.5 v0 a15.5,15.5 0 0 1 -15.5,15.5 h-51 a15.5,15.5 0 0 1 -15.5,-15.5 v0 A15.5,15.5 0 0 1 289.54,289.54"/></mask><path x="285" y="285" width="82" height="31" fill="rgba(255,255,255,0.045)" d="M300.5,285 h51 a15.5,15.5 0 0 1 15.5,15.5 v0 a15.5,15.5 0 0 1 -15.5,15.5 h-51 a15.5,15.5 0 0 1 -15.5,-15.5 v0 a15.5,15.5 0 0 1 15.5,-15.5" clip-path="url(#satori_cp-id)" mask="url(#satori_om-id)"/><path width="82" height="31" clip-path="url(#satori_bc-id-1-4-2)" fill="none" stroke="rgba(255,255,255,0.1)" stroke-width="2" d="M289.54,289.54 A15.5,15.5 0 0 1 300.5,285 h51 a15.5,15.5 0 0 1 15.5,15.5 v0 a15.5,15.5 0 0 1 -15.5,15.5 h-51 a15.5,15.5 0 0 1 -15.5,-15.5 v0 A15.5,15.5 0 0 1 289.54,289.54"/><g mask="url(#satori_om-id)" clip-path="url(#satori_cp-id)"><path fill="rgba(255,255,255,0.75)" d="M304.2 305L303.1 305L303.1 296.3L306.0 296.3Q307.1 296.3 307.7 296.6Q308.4 297.0 308.7 297.6Q309.0 298.3 309.0 299.0Q309.0 299.8 308.7 300.5Q308.4 301.1 307.7 301.5Q307.1 301.8 306.0 301.8L306.0 301.8L304.2 301.8L304.2 305ZM304.2 297.2L304.2 300.9L306.0 300.9Q306.7 300.9 307.1 300.6Q307.5 300.4 307.7 300.0Q307.9 299.6 307.9 299.0Q307.9 298.5 307.7 298.1Q307.5 297.7 307.1 297.5Q306.7 297.2 306.0 297.2L306.0 297.2L304.2 297.2ZM310.5 307.4L310.5 307.4L310.8 306.5L310.9 306.5Q311.2 306.6 311.5 306.5Q311.7 306.5 311.9 306.3Q312.1 306.0 312.3 305.6L312.3 305.6L312.5 305.0L310.0 298.4L311.1 298.4L312.5 302.3Q312.8 302.9 312.9 303.5L312.9 303.5Q313.0 303.8 313.0 304.0L313.0 304.0Q313.1 303.8 313.2 303.5L313.2 303.5Q313.3 302.9 313.5 302.3L313.5 302.3L314.9 298.4L316.1 298.4L313.2 306.0Q313.0 306.5 312.7 306.8Q312.5 307.2 312.1 307.3Q311.7 307.5 311.3 307.5L311.3 307.5Q311.0 307.5 310.8 307.5Q310.6 307.4 310.5 307.4ZM319.7 297.3L317.0 297.3L317.0 296.3L323.6 296.3L323.6 297.3L320.8 297.3L320.8 305L319.7 305L319.7 297.3ZM327.7 305.1L327.7 305.1Q326.9 305.1 326.2 304.7Q325.5 304.3 325.1 303.5Q324.8 302.8 324.8 301.8L324.8 301.8Q324.8 300.7 325.1 300.0Q325.5 299.2 326.2 298.8Q326.9 298.4 327.7 298.4L327.7 298.4Q328.6 298.4 329.3 298.8Q330.0 299.2 330.4 300.0Q330.7 300.7 330.7 301.8L330.7 301.8Q330.7 302.8 330.4 303.5Q330.0 304.3 329.3 304.7Q328.6 305.1 327.7 305.1ZM327.7 304.2L327.7 304.2Q328.4 304.2 328.8 303.9Q329.3 303.5 329.5 303.0Q329.7 302.4 329.7 301.8L329.7 301.8Q329.7 301.1 329.5 300.6Q329.3 300.0 328.8 299.7Q328.4 299.3 327.7 299.3L327.7 299.3Q327.1 299.3 326.7 299.7Q326.2 300.0 326.0 300.6Q325.8 301.1 325.8 301.8L325.8 301.8Q325.8 302.4 326.0 303.0Q326.2 303.5 326.7 303.9Q327.1 304.2 327.7 304.2ZM333.3 305L332.3 305L332.3 298.4L333.3 298.4L333.3 299.5L333.4 299.5Q333.5 299.0 334.0 298.7Q334.5 298.4 335.1 298.4L335.1 298.4Q335.2 298.4 335.3 298.4Q335.5 298.4 335.6 298.4L335.6 298.4L335.6 299.4Q335.6 299.4 335.4 299.4Q335.2 299.4 335.0 299.4L335.0 299.4Q334.5 299.4 334.1 299.6Q333.8 299.8 333.5 300.1Q333.3 300.5 333.3 300.9L333.3 300.9L333.3 305ZM339.5 305.1L339.5 305.1Q338.6 305.1 337.9 304.7Q337.2 304.3 336.9 303.5Q336.5 302.8 336.5 301.8L336.5 301.8Q336.5 300.7 336.9 300.0Q337.2 299.2 337.9 298.8Q338.6 298.4 339.5 298.4L339.5 298.4Q339.9 298.4 340.4 298.5Q340.8 298.6 341.1 298.8Q341.5 299.1 341.7 299.4Q342.0 299.8 342.1 300.2L342.1 300.2L341.1 300.5Q341.0 300.2 340.9 300.0Q340.7 299.8 340.5 299.6Q340.3 299.5 340.1 299.4Q339.8 299.3 339.5 299.3L339.5 299.3Q338.8 299.3 338.4 299.7Q338.0 300.0 337.8 300.6Q337.5 301.1 337.5 301.8L337.5 301.8Q337.5 302.4 337.8 303.0Q338.0 303.5 338.4 303.9Q338.8 304.2 339.5 304.2L339.5 304.2Q339.8 304.2 340.1 304.1Q340.3 304.0 340.6 303.9Q340.8 303.7 340.9 303.5Q341.1 303.3 341.1 303.0L341.1 303.0L342.1 303.3Q342.0 303.7 341.8 304.1Q341.5 304.4 341.1 304.6Q340.8 304.9 340.4 305.0Q339.9 305.1 339.5 305.1ZM344.7 301.1L344.7 301.1L344.7 305L343.6 305L343.6 296.3L344.7 296.3L344.7 299.6Q345.0 299.0 345.4 298.7L345.4 298.7Q345.9 298.4 346.7 298.4L346.7 298.4Q347.3 298.4 347.8 298.6Q348.3 298.9 348.6 299.5Q348.9 300.0 348.9 300.8L348.9 300.8L348.9 305L347.8 305L347.8 300.9Q347.8 300.2 347.4 299.7Q347.0 299.3 346.4 299.3L346.4 299.3Q345.9 299.3 345.5 299.5Q345.1 299.7 344.9 300.1Q344.7 300.5 344.7 301.1Z "/></g><defs><clipPath id="satori_bc-id-1-4-3" clip-path="url(#satori_cp-id)"><path x="375" y="285" width="76" height="31" d="M390.5,285 h45 a15.5,15.5 0 0 1 15.5,15.5 v0 a15.5,15.5 0 0 1 -15.5,15.5 h-45 a15.5,15.5 0 0 1 -15.5,-15.5 v0 a15.5,15.5 0 0 1 15.5,-15.5"/></clipPath></defs><mask id="satori_om-id-1-4-3"><rect x="376" y="286" width="74" height="29" fill="#fff" mask="url(#satori_om-id)"/><path width="76" height="31" fill="none" stroke="#000" stroke-width="2" d="M379.54,289.54 A15.5,15.5 0 0 1 390.5,285 h45 a15.5,15.5 0 0 1 15.5,15.5 v0 a15.5,15.5 0 0 1 -15.5,15.5 h-45 a15.5,15.5 0 0 1 -15.5,-15.5 v0 A15.5,15.5 0 0 1 379.54,289.54"/></mask><path x="375" y="285" width="76" height="31" fill="rgba(255,255,255,0.045)" d="M390.5,285 h45 a15.5,15.5 0 0 1 15.5,15.5 v0 a15.5,15.5 0 0 1 -15.5,15.5 h-45 a15.5,15.5 0 0 1 -15.5,-15.5 v0 a15.5,15.5 0 0 1 15.5,-15.5" clip-path="url(#satori_cp-id)" mask="url(#satori_om-id)"/><path width="76" height="31" clip-path="url(#satori_bc-id-1-4-3)" fill="none" stroke="rgba(255,255,255,0.1)" stroke-width="2" d="M379.54,289.54 A15.5,15.5 0 0 1 390.5,285 h45 a15.5,15.5 0 0 1 15.5,15.5 v0 a15.5,15.5 0 0 1 -15.5,15.5 h-45 a15.5,15.5 0 0 1 -15.5,-15.5 v0 A15.5,15.5 0 0 1 379.54,289.54"/><g mask="url(#satori_om-id)" clip-path="url(#satori_cp-id)"><path fill="rgba(255,255,255,0.75)" d="M394.2 305L393.1 305L393.1 296.3L396.0 296.3Q397.1 296.3 397.7 296.6Q398.4 297.0 398.7 297.6Q399.0 298.3 399.0 299.0Q399.0 299.8 398.7 300.5Q398.4 301.1 397.7 301.5Q397.1 301.8 396.0 301.8L396.0 301.8L394.2 301.8L394.2 305ZM394.2 297.2L394.2 300.9L396.0 300.9Q396.7 300.9 397.1 300.6Q397.5 300.4 397.7 300.0Q397.9 299.6 397.9 299.0Q397.9 298.5 397.7 298.1Q397.5 297.7 397.1 297.5Q396.7 297.2 396.0 297.2L396.0 297.2L394.2 297.2ZM402.4 305.2L402.4 305.2Q401.8 305.2 401.3 304.9Q400.8 304.7 400.5 304.2Q400.2 303.8 400.2 303.1L400.2 303.1Q400.2 302.6 400.4 302.2Q400.6 301.9 401.0 301.7Q401.4 301.5 401.8 301.4Q402.3 301.3 402.7 301.2L402.7 301.2Q403.3 301.1 403.7 301.1Q404.1 301.1 404.2 301.0Q404.4 300.9 404.4 300.6L404.4 300.6L404.4 300.6Q404.4 300.2 404.3 299.9Q404.1 299.6 403.8 299.4Q403.5 299.3 403.1 299.3L403.1 299.3Q402.6 299.3 402.2 299.4Q401.9 299.6 401.7 299.8Q401.5 300.0 401.4 300.3L401.4 300.3L400.4 299.9Q400.6 299.3 401.1 299.0Q401.5 298.6 402.0 298.5Q402.5 298.4 403.0 298.4L403.0 298.4Q403.3 298.4 403.8 298.4Q404.2 298.5 404.6 298.8Q405.0 299.0 405.2 299.5Q405.5 299.9 405.5 300.7L405.5 300.7L405.5 305L404.4 305L404.4 304.1L404.4 304.1Q404.3 304.3 404.0 304.6Q403.8 304.8 403.4 305.0Q403.0 305.2 402.4 305.2ZM402.6 304.2L402.6 304.2Q403.2 304.2 403.6 304.0Q404 303.8 404.2 303.4Q404.4 303.0 404.4 302.6L404.4 302.6L404.4 301.7Q404.4 301.8 404.1 301.9Q403.9 301.9 403.6 302.0Q403.4 302.0 403.1 302.0Q402.8 302.1 402.7 302.1L402.7 302.1Q402.3 302.1 402.0 302.3Q401.7 302.4 401.5 302.6Q401.3 302.8 401.3 303.2L401.3 303.2Q401.3 303.5 401.4 303.8Q401.6 304.0 401.9 304.1Q402.2 304.2 402.6 304.2ZM408.4 301.1L408.4 301.1L408.4 305L407.3 305L407.3 298.4L408.3 298.4L408.3 299.7Q408.6 299.0 409.1 298.7L409.1 298.7Q409.6 298.4 410.4 298.4L410.4 298.4Q411.0 298.4 411.5 298.6Q412.0 298.9 412.3 299.5Q412.6 300.0 412.6 300.8L412.6 300.8L412.6 305L411.5 305L411.5 300.9Q411.5 300.2 411.1 299.7Q410.7 299.3 410.0 299.3L410.0 299.3Q409.6 299.3 409.2 299.5Q408.8 299.7 408.6 300.1Q408.4 300.5 408.4 301.1ZM416.9 305.1L416.9 305.1Q416.1 305.1 415.4 304.7Q414.8 304.3 414.5 303.5Q414.1 302.8 414.1 301.7L414.1 301.7Q414.1 300.7 414.5 299.9Q414.8 299.2 415.4 298.8Q416.1 298.4 416.9 298.4L416.9 298.4Q417.5 298.4 417.9 298.6Q418.3 298.8 418.5 299.1Q418.7 299.3 418.8 299.5L418.8 299.5L418.9 299.5L418.9 296.3L419.9 296.3L419.9 305L418.9 305L418.9 304.0L418.8 304.0Q418.7 304.2 418.5 304.4Q418.3 304.7 417.9 304.9Q417.5 305.1 416.9 305.1ZM417.0 304.2L417.0 304.2Q417.6 304.2 418.0 303.9Q418.4 303.6 418.7 303.0Q418.9 302.5 418.9 301.7L418.9 301.7Q418.9 301.0 418.7 300.5Q418.5 299.9 418.0 299.6Q417.6 299.3 417.0 299.3L417.0 299.3Q416.4 299.3 416.0 299.6Q415.6 300.0 415.4 300.5Q415.2 301.1 415.2 301.7L415.2 301.7Q415.2 302.4 415.4 303.0Q415.6 303.5 416.0 303.9Q416.4 304.2 417.0 304.2ZM423.6 305.2L423.6 305.2Q423.0 305.2 422.5 304.9Q422.0 304.7 421.7 304.2Q421.4 303.8 421.4 303.1L421.4 303.1Q421.4 302.6 421.6 302.2Q421.8 301.9 422.2 301.7Q422.6 301.5 423.0 301.4Q423.5 301.3 423.9 301.2L423.9 301.2Q424.5 301.1 424.9 301.1Q425.2 301.1 425.4 301.0Q425.6 300.9 425.6 300.6L425.6 300.6L425.6 300.6Q425.6 300.2 425.4 299.9Q425.3 299.6 425.0 299.4Q424.7 299.3 424.2 299.3L424.2 299.3Q423.8 299.3 423.4 299.4Q423.1 299.6 422.9 299.8Q422.7 300.0 422.6 300.3L422.6 300.3L421.6 299.9Q421.8 299.3 422.2 299.0Q422.7 298.6 423.2 298.5Q423.7 298.4 424.2 298.4L424.2 298.4Q424.5 298.4 424.9 298.4Q425.4 298.5 425.8 298.8Q426.1 299.0 426.4 299.5Q426.7 299.9 426.7 300.7L426.7 300.7L426.7 305L425.6 305L425.6 304.1L425.5 304.1Q425.4 304.3 425.2 304.6Q424.9 304.8 424.5 305.0Q424.2 305.2 423.6 305.2ZM423.8 304.2L423.8 304.2Q424.4 304.2 424.8 304.0Q425.2 303.8 425.4 303.4Q425.6 303.0 425.6 302.6L425.6 302.6L425.6 301.7Q425.5 301.8 425.3 301.9Q425.1 301.9 424.8 302.0Q424.5 302.0 424.3 302.0Q424.0 302.1 423.9 302.1L423.9 302.1Q423.5 302.1 423.2 302.3Q422.8 302.4 422.6 302.6Q422.4 302.8 422.4 303.2L422.4 303.2Q422.4 303.5 422.6 303.8Q422.8 304.0 423.1 304.1Q423.4 304.2 423.8 304.2ZM430.7 305.1L430.7 305.1Q430.1 305.1 429.5 304.9Q429.0 304.7 428.7 304.4Q428.3 304.0 428.2 303.4L428.2 303.4L429.2 303.2Q429.4 303.7 429.7 304.0Q430.1 304.2 430.7 304.2L430.7 304.2Q431.4 304.2 431.8 303.9Q432.2 303.6 432.2 303.2L432.2 303.2Q432.2 302.9 432.0 302.7Q431.7 302.4 431.3 302.3L431.3 302.3L430.2 302.1Q429.3 301.9 428.8 301.4Q428.4 301.0 428.4 300.3L428.4 300.3Q428.4 299.7 428.7 299.3Q429.0 298.9 429.6 298.6Q430.1 298.4 430.8 298.4L430.8 298.4Q431.5 298.4 432.0 298.6Q432.5 298.8 432.7 299.1Q433.0 299.5 433.2 299.9L433.2 299.9L432.2 300.2Q432.1 299.8 431.8 299.6Q431.5 299.3 430.8 299.3L430.8 299.3Q430.3 299.3 429.9 299.5Q429.5 299.8 429.5 300.2L429.5 300.2Q429.5 300.6 429.7 300.8Q430.0 301.0 430.6 301.2L430.6 301.2L431.6 301.4Q432.5 301.6 432.9 302.0Q433.3 302.5 433.3 303.2L433.3 303.2Q433.3 303.7 433.0 304.2Q432.7 304.6 432.1 304.9Q431.5 305.1 430.7 305.1Z "/></g><defs><clipPath id="satori_bc-id-1-4-4" clip-path="url(#satori_cp-id)"><path x="459" y="285" width="99" height="31" d="M474.5,285 h68 a15.5,15.5 0 0 1 15.5,15.5 v0 a15.5,15.5 0 0 1 -15.5,15.5 h-68 a15.5,15.5 0 0 1 -15.5,-15.5 v0 a15.5,15.5 0 0 1 15.5,-15.5"/></clipPath></defs><mask id="satori_om-id-1-4-4"><rect x="460" y="286" width="97" height="29" fill="#fff" mask="url(#satori_om-id)"/><path width="99" height="31" fill="none" stroke="#000" stroke-width="2" d="M463.54,289.54 A15.5,15.5 0 0 1 474.5,285 h68 a15.5,15.5 0 0 1 15.5,15.5 v0 a15.5,15.5 0 0 1 -15.5,15.5 h-68 a15.5,15.5 0 0 1 -15.5,-15.5 v0 A15.5,15.5 0 0 1 463.54,289.54"/></mask><path x="459" y="285" width="99" height="31" fill="rgba(255,255,255,0.045)" d="M474.5,285 h68 a15.5,15.5 0 0 1 15.5,15.5 v0 a15.5,15.5 0 0 1 -15.5,15.5 h-68 a15.5,15.5 0 0 1 -15.5,-15.5 v0 a15.5,15.5 0 0 1 15.5,-15.5" clip-path="url(#satori_cp-id)" mask="url(#satori_om-id)"/><path width="99" height="31" clip-path="url(#satori_bc-id-1-4-4)" fill="none" stroke="rgba(255,255,255,0.1)" stroke-width="2" d="M463.54,289.54 A15.5,15.5 0 0 1 474.5,285 h68 a15.5,15.5 0 0 1 15.5,15.5 v0 a15.5,15.5 0 0 1 -15.5,15.5 h-68 a15.5,15.5 0 0 1 -15.5,-15.5 v0 A15.5,15.5 0 0 1 463.54,289.54"/><g mask="url(#satori_om-id)" clip-path="url(#satori_cp-id)"><path fill="rgba(255,255,255,0.75)" d="M479.8 305.2L479.8 305.2Q478.9 305.2 478.2 304.8Q477.5 304.5 477.1 304.0Q476.7 303.4 476.7 302.7L476.7 302.7L477.8 302.7Q477.9 303.2 478.2 303.5Q478.4 303.8 478.9 304.0Q479.3 304.2 479.8 304.2L479.8 304.2Q480.4 304.2 480.9 304.0Q481.4 303.8 481.7 303.4Q481.9 303.1 481.9 302.6L481.9 302.6Q481.9 302.2 481.7 301.9Q481.5 301.7 481.1 301.5Q480.7 301.3 480.2 301.2L480.2 301.2L479.2 300.9Q478.1 300.6 477.5 300.0Q476.9 299.5 476.9 298.6L476.9 298.6Q476.9 297.9 477.3 297.3Q477.7 296.8 478.4 296.5Q479.1 296.2 479.9 296.2L479.9 296.2Q480.8 296.2 481.4 296.5Q482.1 296.8 482.5 297.3Q482.9 297.8 482.9 298.5L482.9 298.5L481.8 298.5Q481.7 297.8 481.2 297.5Q480.7 297.1 479.9 297.1L479.9 297.1Q479.3 297.1 478.9 297.3Q478.5 297.5 478.2 297.8Q478.0 298.1 478.0 298.6L478.0 298.6Q478.0 299.0 478.3 299.3Q478.6 299.6 479.0 299.7Q479.4 299.9 479.7 300.0L479.7 300.0L480.5 300.2Q480.9 300.3 481.3 300.5Q481.7 300.6 482.1 300.9Q482.5 301.2 482.8 301.6Q483.0 302.0 483.0 302.6L483.0 302.6Q483.0 303.3 482.6 303.9Q482.3 304.5 481.6 304.8Q480.9 305.2 479.8 305.2ZM487.3 305.1L487.3 305.1Q486.4 305.1 485.7 304.7Q485.1 304.3 484.7 303.5Q484.3 302.8 484.3 301.8L484.3 301.8Q484.3 300.7 484.7 300.0Q485.1 299.2 485.7 298.8Q486.4 298.4 487.3 298.4L487.3 298.4Q487.8 298.4 488.2 298.5Q488.6 298.6 489.0 298.8Q489.3 299.1 489.6 299.4Q489.8 299.8 489.9 300.2L489.9 300.2L488.9 300.5Q488.9 300.2 488.7 300.0Q488.6 299.8 488.4 299.6Q488.2 299.5 487.9 299.4Q487.6 299.3 487.3 299.3L487.3 299.3Q486.6 299.3 486.2 299.7Q485.8 300.0 485.6 300.6Q485.4 301.1 485.4 301.8L485.4 301.8Q485.4 302.4 485.6 303.0Q485.8 303.5 486.2 303.9Q486.6 304.2 487.3 304.2L487.3 304.2Q487.6 304.2 487.9 304.1Q488.2 304.0 488.4 303.9Q488.6 303.7 488.7 303.5Q488.9 303.3 489.0 303.0L489.0 303.0L490.0 303.3Q489.8 303.7 489.6 304.1Q489.3 304.4 489.0 304.6Q488.6 304.9 488.2 305.0Q487.8 305.1 487.3 305.1ZM492.5 305L491.5 305L491.5 298.4L492.5 298.4L492.5 305ZM492.0 297.4L492.0 297.4Q491.7 297.4 491.5 297.2Q491.3 297.0 491.3 296.7L491.3 296.7Q491.3 296.4 491.5 296.2Q491.7 296.0 492.0 296.0L492.0 296.0Q492.3 296.0 492.5 296.2Q492.8 296.4 492.8 296.7L492.8 296.7Q492.8 297.0 492.5 297.2Q492.3 297.4 492.0 297.4ZM495.4 305L494.4 305L494.4 296.3L495.4 296.3L495.4 301.3L495.6 301.3L498.4 298.4L499.7 298.4L496.9 301.3L499.9 305L498.5 305L496.1 301.9L495.4 302.6L495.4 305ZM502.0 305L501.0 305L501.0 298.4L502.0 298.4L502.0 305ZM501.5 297.4L501.5 297.4Q501.2 297.4 501.0 297.2Q500.8 297.0 500.8 296.7L500.8 296.7Q500.8 296.4 501.0 296.2Q501.2 296.0 501.5 296.0L501.5 296.0Q501.8 296.0 502.0 296.2Q502.2 296.4 502.2 296.7L502.2 296.7Q502.2 297.0 502.0 297.2Q501.8 297.4 501.5 297.4ZM505.1 298.4L506.5 298.4L506.5 299.4L505.1 299.4L505.1 303.3Q505.1 303.7 505.3 303.9Q505.5 304.1 505.9 304.1L505.9 304.1Q506.0 304.1 506.1 304.1Q506.3 304.1 506.4 304.1L506.4 304.1L506.6 305.0Q506.5 305.0 506.3 305.1Q506.1 305.1 505.9 305.1L505.9 305.1Q505.0 305.1 504.5 304.6Q504.1 304.2 504.1 303.4L504.1 303.4L504.1 299.4L503.1 299.4L503.1 298.4L504.1 298.4L504.1 296.9L505.1 296.9L505.1 298.4ZM507.7 300.8L511.6 300.8L511.6 301.8L507.7 301.8L507.7 300.8ZM513.3 296.3L514.4 296.3L514.4 305L513.3 305L513.3 296.3ZM519.0 305.1L519.0 305.1Q518.0 305.1 517.3 304.7Q516.7 304.3 516.3 303.5Q515.9 302.8 515.9 301.8Q515.9 300.8 516.3 300.0Q516.6 299.2 517.3 298.8Q518.0 298.4 518.9 298.4L518.9 298.4Q519.4 298.4 519.9 298.5Q520.4 298.7 520.8 299.1Q521.2 299.5 521.5 300.1Q521.7 300.7 521.7 301.6L521.7 301.6L521.7 302.1L517.0 302.1Q517.0 302.7 517.2 303.2L517.2 303.2Q517.5 303.7 517.9 303.9Q518.4 304.2 519.0 304.2L519.0 304.2Q519.4 304.2 519.7 304.1Q520.0 304.0 520.2 303.8Q520.5 303.5 520.6 303.2L520.6 303.2L521.6 303.5Q521.5 304.0 521.1 304.3Q520.7 304.7 520.2 304.9Q519.7 305.1 519.0 305.1ZM517.0 301.2L517.0 301.2L520.6 301.2Q520.6 300.7 520.5 300.4L520.5 300.4Q520.3 299.9 519.9 299.6Q519.5 299.3 518.9 299.3Q518.3 299.3 517.8 299.6Q517.4 299.9 517.2 300.3L517.2 300.3Q517.0 300.7 517.0 301.2ZM525.1 305.2L525.1 305.2Q524.4 305.2 523.9 304.9Q523.4 304.7 523.1 304.2Q522.8 303.8 522.8 303.1L522.8 303.1Q522.8 302.6 523.1 302.2Q523.3 301.9 523.6 301.7Q524.0 301.5 524.5 301.4Q524.9 301.3 525.4 301.2L525.4 301.2Q526.0 301.1 526.3 301.1Q526.7 301.1 526.9 301.0Q527.1 300.9 527.1 300.6L527.1 300.6L527.1 300.6Q527.1 300.2 526.9 299.9Q526.8 299.6 526.4 299.4Q526.1 299.3 525.7 299.3L525.7 299.3Q525.2 299.3 524.9 299.4Q524.6 299.6 524.3 299.8Q524.1 300.0 524.0 300.3L524.0 300.3L523.0 299.9Q523.3 299.3 523.7 299.0Q524.1 298.6 524.6 298.5Q525.2 298.4 525.7 298.4L525.7 298.4Q526.0 298.4 526.4 298.4Q526.8 298.5 527.2 298.8Q527.6 299.0 527.9 299.5Q528.1 299.9 528.1 300.7L528.1 300.7L528.1 305L527.1 305L527.1 304.1L527.0 304.1Q526.9 304.3 526.6 304.6Q526.4 304.8 526.0 305.0Q525.6 305.2 525.1 305.2ZM525.2 304.2L525.2 304.2Q525.8 304.2 526.2 304.0Q526.6 303.8 526.8 303.4Q527.1 303.0 527.1 302.6L527.1 302.6L527.1 301.7Q527.0 301.8 526.8 301.9Q526.6 301.9 526.3 302.0Q526.0 302.0 525.7 302.0Q525.5 302.1 525.3 302.1L525.3 302.1Q524.9 302.1 524.6 302.3Q524.3 302.4 524.1 302.6Q523.9 302.8 523.9 303.2L523.9 303.2Q523.9 303.5 524.1 303.8Q524.2 304.0 524.5 304.1Q524.8 304.2 525.2 304.2ZM531.0 305L530.0 305L530.0 298.4L531.0 298.4L531.0 299.5L531.1 299.5Q531.2 299.0 531.7 298.7Q532.2 298.4 532.8 298.4L532.8 298.4Q532.9 298.4 533.0 298.4Q533.2 298.4 533.3 298.4L533.3 298.4L533.3 299.4Q533.2 299.4 533.1 299.4Q532.9 299.4 532.7 299.4L532.7 299.4Q532.2 299.4 531.8 299.6Q531.4 299.8 531.2 300.1Q531.0 300.5 531.0 300.9L531.0 300.9L531.0 305ZM535.5 301.1L535.5 301.1L535.5 305L534.5 305L534.5 298.4L535.5 298.4L535.5 299.7Q535.8 299.0 536.2 298.7L536.2 298.7Q536.8 298.4 537.5 298.4L537.5 298.4Q538.2 298.4 538.7 298.6Q539.2 298.9 539.4 299.5Q539.7 300.0 539.7 300.8L539.7 300.8L539.7 305L538.7 305L538.7 300.9Q538.7 300.2 538.3 299.7Q537.9 299.3 537.2 299.3L537.2 299.3Q536.7 299.3 536.3 299.5Q536.0 299.7 535.8 300.1Q535.5 300.5 535.5 301.1Z "/></g><defs><clipPath id="satori_bc-id-1-4-5" clip-path="url(#satori_cp-id)"><path x="566" y="285" width="58" height="31" d="M581.5,285 h27 a15.5,15.5 0 0 1 15.5,15.5 v0 a15.5,15.5 0 0 1 -15.5,15.5 h-27 a15.5,15.5 0 0 1 -15.5,-15.5 v0 a15.5,15.5 0 0 1 15.5,-15.5"/></clipPath></defs><mask id="satori_om-id-1-4-5"><rect x="567" y="286" width="56" height="29" fill="#fff" mask="url(#satori_om-id)"/><path width="58" height="31" fill="none" stroke="#000" stroke-width="2" d="M570.54,289.54 A15.5,15.5 0 0 1 581.5,285 h27 a15.5,15.5 0 0 1 15.5,15.5 v0 a15.5,15.5 0 0 1 -15.5,15.5 h-27 a15.5,15.5 0 0 1 -15.5,-15.5 v0 A15.5,15.5 0 0 1 570.54,289.54"/></mask><path x="566" y="285" width="58" height="31" fill="rgba(255,255,255,0.045)" d="M581.5,285 h27 a15.5,15.5 0 0 1 15.5,15.5 v0 a15.5,15.5 0 0 1 -15.5,15.5 h-27 a15.5,15.5 0 0 1 -15.5,-15.5 v0 a15.5,15.5 0 0 1 15.5,-15.5" clip-path="url(#satori_cp-id)" mask="url(#satori_om-id)"/><path width="58" height="31" clip-path="url(#satori_bc-id-1-4-5)" fill="none" stroke="rgba(255,255,255,0.1)" stroke-width="2" d="M570.54,289.54 A15.5,15.5 0 0 1 581.5,285 h27 a15.5,15.5 0 0 1 15.5,15.5 v0 a15.5,15.5 0 0 1 -15.5,15.5 h-27 a15.5,15.5 0 0 1 -15.5,-15.5 v0 A15.5,15.5 0 0 1 570.54,289.54"/><g mask="url(#satori_om-id)" clip-path="url(#satori_cp-id)"><path fill="rgba(255,255,255,0.75)" d="M586.8 305.2L586.8 305.2Q585.9 305.2 585.2 304.8Q584.5 304.5 584.1 304.0Q583.7 303.4 583.7 302.7L583.7 302.7L584.8 302.7Q584.9 303.2 585.2 303.5Q585.4 303.8 585.9 304.0Q586.3 304.2 586.8 304.2L586.8 304.2Q587.4 304.2 587.9 304.0Q588.4 303.8 588.7 303.4Q588.9 303.1 588.9 302.6L588.9 302.6Q588.9 302.2 588.7 301.9Q588.5 301.7 588.1 301.5Q587.7 301.3 587.2 301.2L587.2 301.2L586.2 300.9Q585.1 300.6 584.5 300.0Q583.9 299.5 583.9 298.6L583.9 298.6Q583.9 297.9 584.3 297.3Q584.7 296.8 585.4 296.5Q586.1 296.2 586.9 296.2L586.9 296.2Q587.8 296.2 588.4 296.5Q589.1 296.8 589.5 297.3Q589.9 297.8 589.9 298.5L589.9 298.5L588.8 298.5Q588.7 297.8 588.2 297.5Q587.7 297.1 586.9 297.1L586.9 297.1Q586.3 297.1 585.9 297.3Q585.5 297.5 585.2 297.8Q585.0 298.1 585.0 298.6L585.0 298.6Q585.0 299.0 585.3 299.3Q585.6 299.6 586.0 299.7Q586.4 299.9 586.7 300.0L586.7 300.0L587.5 300.2Q587.9 300.3 588.3 300.5Q588.7 300.6 589.1 300.9Q589.5 301.2 589.8 301.6Q590.0 302.0 590.0 302.6L590.0 302.6Q590.0 303.3 589.6 303.9Q589.3 304.5 588.6 304.8Q587.9 305.2 586.8 305.2ZM595.3 305.1L595.3 305.1Q594.2 305.1 593.3 304.6Q592.4 304.0 591.9 303.0Q591.4 302.0 591.4 300.6L591.4 300.6Q591.4 299.3 591.9 298.2Q592.4 297.2 593.3 296.7Q594.2 296.2 595.3 296.2Q596.4 296.2 597.3 296.7Q598.2 297.2 598.7 298.2Q599.2 299.3 599.2 300.6L599.2 300.6Q599.2 302.0 598.7 303.0L598.7 303.0Q598.3 303.8 597.6 304.3L597.6 304.3L598.8 305.8L597.6 305.8L596.8 304.8Q596.1 305.1 595.3 305.1ZM596.2 303.9L594.9 302.3L596.1 302.3L597.0 303.5Q597.4 303.1 597.7 302.5L597.7 302.5Q598.1 301.8 598.1 300.6L598.1 300.6Q598.1 299.5 597.7 298.7Q597.3 298.0 596.7 297.6Q596.1 297.2 595.3 297.2L595.3 297.2Q594.5 297.2 593.9 297.6Q593.2 298.0 592.9 298.8Q592.5 299.5 592.5 300.6L592.5 300.6Q592.5 301.8 592.9 302.5Q593.2 303.3 593.9 303.7Q594.5 304.1 595.3 304.1L595.3 304.1Q595.8 304.1 596.2 303.9L596.2 303.9ZM606.1 305L600.9 305L600.9 296.3L602.0 296.3L602.0 304.0L606.1 304.0L606.1 305Z "/></g><defs><clipPath id="satori_bc-id-1-4-6" clip-path="url(#satori_cp-id)"><path x="632" y="285" width="75" height="31" d="M647.5,285 h44 a15.5,15.5 0 0 1 15.5,15.5 v0 a15.5,15.5 0 0 1 -15.5,15.5 h-44 a15.5,15.5 0 0 1 -15.5,-15.5 v0 a15.5,15.5 0 0 1 15.5,-15.5"/></clipPath></defs><mask id="satori_om-id-1-4-6"><rect x="633" y="286" width="73" height="29" fill="#fff" mask="url(#satori_om-id)"/><path width="75" height="31" fill="none" stroke="#000" stroke-width="2" d="M636.54,289.54 A15.5,15.5 0 0 1 647.5,285 h44 a15.5,15.5 0 0 1 15.5,15.5 v0 a15.5,15.5 0 0 1 -15.5,15.5 h-44 a15.5,15.5 0 0 1 -15.5,-15.5 v0 A15.5,15.5 0 0 1 636.54,289.54"/></mask><path x="632" y="285" width="75" height="31" fill="rgba(255,255,255,0.045)" d="M647.5,285 h44 a15.5,15.5 0 0 1 15.5,15.5 v0 a15.5,15.5 0 0 1 -15.5,15.5 h-44 a15.5,15.5 0 0 1 -15.5,-15.5 v0 a15.5,15.5 0 0 1 15.5,-15.5" clip-path="url(#satori_cp-id)" mask="url(#satori_om-id)"/><path width="75" height="31" clip-path="url(#satori_bc-id-1-4-6)" fill="none" stroke="rgba(255,255,255,0.1)" stroke-width="2" d="M636.54,289.54 A15.5,15.5 0 0 1 647.5,285 h44 a15.5,15.5 0 0 1 15.5,15.5 v0 a15.5,15.5 0 0 1 -15.5,15.5 h-44 a15.5,15.5 0 0 1 -15.5,-15.5 v0 A15.5,15.5 0 0 1 636.54,289.54"/><g mask="url(#satori_om-id)" clip-path="url(#satori_cp-id)"><path fill="rgba(255,255,255,0.75)" d="M652.8 305L652.8 305L650.1 305L650.1 296.3L652.9 296.3Q654.2 296.3 655.1 296.8Q656.0 297.3 656.5 298.3Q656.9 299.3 656.9 300.6L656.9 300.6Q656.9 302.0 656.5 303.0Q656.0 303.9 655.0 304.5Q654.1 305 652.8 305ZM651.2 297.3L651.2 304.0L652.7 304.0Q653.8 304.0 654.5 303.6Q655.2 303.2 655.5 302.4Q655.9 301.7 655.9 300.6L655.9 300.6Q655.9 299.6 655.5 298.8Q655.2 298.1 654.5 297.7Q653.8 297.3 652.8 297.3L652.8 297.3L651.2 297.3ZM661.3 305.1L661.3 305.1Q660.4 305.1 659.7 304.7Q659.0 304.3 658.6 303.5Q658.3 302.8 658.3 301.8L658.3 301.8Q658.3 300.7 658.6 300.0Q659.0 299.2 659.7 298.8Q660.4 298.4 661.3 298.4L661.3 298.4Q662.1 298.4 662.8 298.8Q663.5 299.2 663.9 300.0Q664.2 300.7 664.2 301.8L664.2 301.8Q664.2 302.8 663.9 303.5Q663.5 304.3 662.8 304.7Q662.1 305.1 661.3 305.1ZM661.3 304.2L661.3 304.2Q661.9 304.2 662.3 303.9Q662.8 303.5 663.0 303.0Q663.2 302.4 663.2 301.8L663.2 301.8Q663.2 301.1 663.0 300.6Q662.8 300.0 662.3 299.7Q661.9 299.3 661.3 299.3L661.3 299.3Q660.6 299.3 660.2 299.7Q659.8 300.0 659.5 300.6Q659.3 301.1 659.3 301.8L659.3 301.8Q659.3 302.4 659.5 303.0Q659.8 303.5 660.2 303.9Q660.6 304.2 661.3 304.2ZM668.4 305.1L668.4 305.1Q667.6 305.1 666.9 304.7Q666.2 304.3 665.8 303.5Q665.5 302.8 665.5 301.8L665.5 301.8Q665.5 300.7 665.8 300.0Q666.2 299.2 666.9 298.8Q667.6 298.4 668.4 298.4L668.4 298.4Q668.9 298.4 669.3 298.5Q669.8 298.6 670.1 298.8Q670.5 299.1 670.7 299.4Q671.0 299.8 671.1 300.2L671.1 300.2L670.1 300.5Q670.0 300.2 669.9 300.0Q669.7 299.8 669.5 299.6Q669.3 299.5 669.0 299.4Q668.8 299.3 668.4 299.3L668.4 299.3Q667.8 299.3 667.4 299.7Q666.9 300.0 666.7 300.6Q666.5 301.1 666.5 301.8L666.5 301.8Q666.5 302.4 666.7 303.0Q666.9 303.5 667.4 303.9Q667.8 304.2 668.4 304.2L668.4 304.2Q668.8 304.2 669.1 304.1Q669.3 304.0 669.5 303.9Q669.8 303.7 669.9 303.5Q670.0 303.3 670.1 303.0L670.1 303.0L671.1 303.3Q671.0 303.7 670.7 304.1Q670.5 304.4 670.1 304.6Q669.8 304.9 669.4 305.0Q668.9 305.1 668.4 305.1ZM673.7 305L672.6 305L672.6 296.3L673.7 296.3L673.7 301.3L673.8 301.3L676.6 298.4L677.9 298.4L675.2 301.3L678.1 305L676.8 305L674.4 301.9L673.7 302.6L673.7 305ZM682.0 305.1L682.0 305.1Q681.0 305.1 680.3 304.7Q679.7 304.3 679.3 303.5Q678.9 302.8 678.9 301.8Q678.9 300.8 679.3 300.0Q679.6 299.2 680.3 298.8Q681.0 298.4 681.9 298.4L681.9 298.4Q682.4 298.4 682.9 298.5Q683.4 298.7 683.8 299.1Q684.2 299.5 684.5 300.1Q684.7 300.7 684.7 301.6L684.7 301.6L684.7 302.1L680.0 302.1Q680.0 302.7 680.2 303.2L680.2 303.2Q680.5 303.7 680.9 303.9Q681.4 304.2 682.0 304.2L682.0 304.2Q682.4 304.2 682.7 304.1Q683.0 304.0 683.2 303.8Q683.5 303.5 683.6 303.2L683.6 303.2L684.6 303.5Q684.4 304.0 684.1 304.3Q683.7 304.7 683.2 304.9Q682.7 305.1 682.0 305.1ZM680.0 301.2L680.0 301.2L683.6 301.2Q683.6 300.7 683.4 300.4L683.4 300.4Q683.2 299.9 682.8 299.6Q682.4 299.3 681.9 299.3Q681.3 299.3 680.8 299.6Q680.4 299.9 680.2 300.3L680.2 300.3Q680.0 300.7 680.0 301.2ZM687.3 305L686.2 305L686.2 298.4L687.2 298.4L687.2 299.5L687.3 299.5Q687.5 299.0 688.0 298.7Q688.4 298.4 689.0 298.4L689.0 298.4Q689.1 298.4 689.3 298.4Q689.4 298.4 689.5 298.4L689.5 298.4L689.5 299.4Q689.5 299.4 689.3 299.4Q689.1 299.4 688.9 299.4L688.9 299.4Q688.4 299.4 688.1 299.6Q687.7 299.8 687.5 300.1Q687.3 300.5 687.3 300.9L687.3 300.9L687.3 305Z "/></g><defs><clipPath id="satori_bc-id-1-4-7" clip-path="url(#satori_cp-id)"><path x="369" y="324" width="62" height="31" d="M384.5,324 h31 a15.5,15.5 0 0 1 15.5,15.5 v0 a15.5,15.5 0 0 1 -15.5,15.5 h-31 a15.5,15.5 0 0 1 -15.5,-15.5 v0 a15.5,15.5 0 0 1 15.5,-15.5"/></clipPath></defs><mask id="satori_om-id-1-4-7"><rect x="370" y="325" width="60" height="29" fill="#fff" mask="url(#satori_om-id)"/><path width="62" height="31" fill="none" stroke="#000" stroke-width="2" d="M373.54,328.54 A15.5,15.5 0 0 1 384.5,324 h31 a15.5,15.5 0 0 1 15.5,15.5 v0 a15.5,15.5 0 0 1 -15.5,15.5 h-31 a15.5,15.5 0 0 1 -15.5,-15.5 v0 A15.5,15.5 0 0 1 373.54,328.54"/></mask><path x="369" y="324" width="62" height="31" fill="rgba(255,255,255,0.045)" d="M384.5,324 h31 a15.5,15.5 0 0 1 15.5,15.5 v0 a15.5,15.5 0 0 1 -15.5,15.5 h-31 a15.5,15.5 0 0 1 -15.5,-15.5 v0 a15.5,15.5 0 0 1 15.5,-15.5" clip-path="url(#satori_cp-id)" mask="url(#satori_om-id)"/><path width="62" height="31" clip-path="url(#satori_bc-id-1-4-7)" fill="none" stroke="rgba(255,255,255,0.1)" stroke-width="2" d="M373.54,328.54 A15.5,15.5 0 0 1 384.5,324 h31 a15.5,15.5 0 0 1 15.5,15.5 v0 a15.5,15.5 0 0 1 -15.5,15.5 h-31 a15.5,15.5 0 0 1 -15.5,-15.5 v0 A15.5,15.5 0 0 1 373.54,328.54"/><g mask="url(#satori_om-id)" clip-path="url(#satori_cp-id)"><path fill="rgba(255,255,255,0.75)" d="M387.5 344L386.3 344L389.5 335.3L390.8 335.3L394.0 344L392.8 344L391.9 341.6L388.3 341.6L387.5 344ZM388.7 340.6L391.6 340.6L391.0 338.8Q390.8 338.3 390.6 337.6L390.6 337.6Q390.4 337.0 390.1 336.2L390.1 336.2Q389.9 337.0 389.7 337.6L389.7 337.6Q389.4 338.4 389.3 338.8L389.3 338.8L388.7 340.6ZM398.3 344L397.0 344L394.6 335.3L395.7 335.3L397.1 340.6Q397.2 341.1 397.3 341.5Q397.4 341.9 397.5 342.4L397.5 342.4Q397.6 342.7 397.6 343.0L397.6 343.0Q397.7 342.7 397.7 342.4L397.7 342.4Q397.8 341.9 397.9 341.5Q398.0 341.1 398.1 340.6L398.1 340.6L399.6 335.3L400.8 335.3L402.2 340.6Q402.3 341.1 402.4 341.5Q402.5 341.9 402.6 342.4L402.6 342.4Q402.7 342.7 402.8 342.9L402.8 342.9Q402.8 342.7 402.9 342.4L402.9 342.4Q403.0 341.9 403.1 341.5Q403.2 341.1 403.3 340.6L403.3 340.6L404.7 335.3L405.8 335.3L403.4 344L402.1 344L400.6 338.5Q400.5 337.9 400.3 337.3L400.3 337.3Q400.3 336.9 400.2 336.5L400.2 336.5Q400.1 336.9 400.1 337.2L400.1 337.2Q399.9 337.8 399.8 338.5L399.8 338.5L398.3 344ZM410.0 344.2L410.0 344.2Q409.0 344.2 408.3 343.8Q407.6 343.5 407.2 343.0Q406.8 342.4 406.8 341.7L406.8 341.7L407.9 341.7Q408.0 342.2 408.3 342.5Q408.5 342.8 409.0 343.0Q409.4 343.2 410.0 343.2L410.0 343.2Q410.5 343.2 411.0 343.0Q411.5 342.8 411.8 342.4Q412.0 342.1 412.0 341.6L412.0 341.6Q412.0 341.2 411.8 340.9Q411.6 340.7 411.2 340.5Q410.8 340.3 410.3 340.2L410.3 340.2L409.3 339.9Q408.2 339.6 407.6 339.0Q407.0 338.5 407.0 337.6L407.0 337.6Q407.0 336.9 407.4 336.3Q407.8 335.8 408.5 335.5Q409.2 335.2 410.0 335.2L410.0 335.2Q410.9 335.2 411.6 335.5Q412.2 335.8 412.6 336.3Q413.0 336.8 413.0 337.5L413.0 337.5L411.9 337.5Q411.8 336.8 411.3 336.5Q410.8 336.1 410.0 336.1L410.0 336.1Q409.4 336.1 409.0 336.3Q408.6 336.5 408.3 336.8Q408.1 337.1 408.1 337.6L408.1 337.6Q408.1 338.0 408.4 338.3Q408.7 338.6 409.1 338.7Q409.5 338.9 409.8 339.0L409.8 339.0L410.7 339.2Q411.0 339.3 411.4 339.5Q411.9 339.6 412.2 339.9Q412.6 340.2 412.9 340.6Q413.1 341.0 413.1 341.6L413.1 341.6Q413.1 342.3 412.8 342.9Q412.4 343.5 411.7 343.8Q411.0 344.2 410.0 344.2Z "/></g></svg>